<?xml version="1.0" encoding="UTF-8" standalone="no"?>
<svg
   width="22"
   height="22"
   viewBox="0 0 5.821 5.821"
   version="1.1"
   id="svg19"
   sodipodi:docname="xopp-tool-image-transcriber.svg"
   inkscape:version="1.4 (e7c3feb100, 2024-10-09)"
   xmlns:inkscape="http://www.inkscape.org/namespaces/inkscape"
   xmlns:sodipodi="http://sodipodi.sourceforge.net/DTD/sodipodi-0.dtd"
   xmlns:xlink="http://www.w3.org/1999/xlink"
   xmlns="http://www.w3.org/2000/svg"
   xmlns:svg="http://www.w3.org/2000/svg">
  <sodipodi:namedview
     id="namedview19"
     pagecolor="#ffffff"
     bordercolor="#000000"
     borderopacity="0.25"
     inkscape:showpageshadow="2"
     inkscape:pageopacity="0.0"
     inkscape:pagecheckerboard="0"
     inkscape:deskcolor="#d1d1d1"
     inkscape:zoom="22.627417"
     inkscape:cx="15.62264"
     inkscape:cy="9.7890095"
     inkscape:window-width="1920"
     inkscape:window-height="1052"
     inkscape:window-x="0"
     inkscape:window-y="0"
     inkscape:window-maximized="1"
     inkscape:current-layer="svg19" />
  <defs
     id="defs16">
    <linearGradient
       id="a">
      <stop
         offset="0"
         style="stop-color:#3689e6;stop-opacity:1"
         id="stop1" />
      <stop
         offset="1"
         style="stop-color:#64baff;stop-opacity:1"
         id="stop2" />
    </linearGradient>
    <linearGradient
       id="c">
      <stop
         offset="0"
         style="stop-color:#f9f9f9;stop-opacity:1"
         id="stop3" />
      <stop
         offset="1"
         style="stop-color:#d8d8d8;stop-opacity:1"
         id="stop4" />
    </linearGradient>
    <linearGradient
       id="b">
      <stop
         offset="0"
         style="stop-color:#efdfc4;stop-opacity:1"
         id="stop5" />
      <stop
         offset="1"
         style="stop-color:#e7c591;stop-opacity:1"
         id="stop6" />
    </linearGradient>
    <linearGradient
       id="d">
      <stop
         offset="0"
         style="stop-color:#9bdb4d;stop-opacity:1"
         id="stop7" />
      <stop
         offset="1"
         style="stop-color:#68b723;stop-opacity:1"
         id="stop8" />
    </linearGradient>
    <linearGradient
       id="g">
      <stop
         style="stop-color:#c0e970;stop-opacity:1"
         offset="0"
         id="stop9" />
      <stop
         offset=".687"
         style="stop-color:#acdd5e;stop-opacity:.97254902"
         id="stop10" />
      <stop
         style="stop-color:#74cf29;stop-opacity:.88235301"
         offset="1"
         id="stop11" />
    </linearGradient>
    <linearGradient
       id="f">
      <stop
         style="stop-color:#f9c440;stop-opacity:1"
         offset="0"
         id="stop12" />
      <stop
         offset=".583"
         style="stop-color:#edb332;stop-opacity:1"
         id="stop13" />
      <stop
         style="stop-color:#d48e15;stop-opacity:1"
         offset="1"
         id="stop14" />
    </linearGradient>
    <linearGradient
       id="e">
      <stop
         style="stop-color:#c5c5c5;stop-opacity:1;"
         offset="0"
         id="stop15" />
      <stop
         style="stop-color:#a8a8a8;stop-opacity:1;"
         offset="1"
         id="stop16" />
    </linearGradient>
    <linearGradient
       xlink:href="#e"
       id="h"
       x1="8.541"
       y1="6.993"
       x2="9.513"
       y2="17.014"
       gradientUnits="userSpaceOnUse"
       gradientTransform="matrix(0.17620457,0,0,0.35278,0.17268134,-1.94)" />
    <linearGradient
       xlink:href="#f"
       id="i"
       x1="10.206"
       y1="8.404"
       x2="10.818"
       y2="13.232"
       gradientUnits="userSpaceOnUse"
       gradientTransform="matrix(0.35278,0,0,0.35278,0,-1.94)" />
    <linearGradient
       xlink:href="#g"
       id="j"
       x1="10.183"
       y1="12.907"
       x2="9.16"
       y2="21.532"
       gradientUnits="userSpaceOnUse"
       gradientTransform="matrix(0.35278,0,0,0.35278,0,-1.94)" />
  </defs>
  <path
     style="fill:url(#h);fill-opacity:1;stroke:none;stroke-width:0.23262;stroke-linecap:round;stroke-linejoin:round;stroke-miterlimit:4;stroke-dasharray:none;stroke-opacity:1"
     d="M 0.345,0.528 H 2.9083025 V 5.393 H 0.345 Z"
     id="path16" />
  <path
     style="fill:#ffffff;fill-opacity:1;stroke:none;stroke-width:0.233679;stroke-linecap:round;stroke-linejoin:round;stroke-miterlimit:4;stroke-dasharray:none;stroke-opacity:1"
     d="M 2.8942237,0.58329195 H 5.480913 V 5.4482919 H 2.8942237 Z"
     id="path16-7" />
  <path
     style="fill:none;fill-opacity:1;stroke:#3689e6;stroke-width:0.329148;stroke-linecap:round;stroke-linejoin:round;stroke-miterlimit:4;stroke-dasharray:none;stroke-opacity:1"
     d="M 0.345,0.528 H 5.477 V 5.393 H 0.345 Z"
     id="path19" />
  <path
     style="fill:none;fill-opacity:0.866667;stroke:#000000;stroke-width:0.10583636;stroke-linecap:round;stroke-linejoin:round;stroke-dasharray:none;stroke-opacity:1;paint-order:stroke fill markers"
     d="m 0.8078968,1.6572242 c 0.12225114,0.1039617 0.2831841,0.096671 0.4350214,0.096671 0.1971252,0 0.3612956,-0.028959 0.5316927,-0.1311969 0.017759,-0.010655 0.1686142,-0.1075899 0.138102,-0.138102 -0.019515,-0.019515 -0.02762,0.057517 -0.02762,0.069051 0,0.073992 0.042022,0.1454011 0.1035765,0.1864377 0.1647147,0.1098098 0.4400164,0.088764 0.6214591,0.041431 0.1639901,-0.04278 0.320548,-0.1100669 0.4557368,-0.2140581 0.032033,-0.024641 0.0701,-0.051862 0.096671,-0.082861 0.00282,-0.00329 0.040437,-0.05919 0.048336,-0.055241 0.00969,0.00485 0.049173,0.076793 0.062146,0.089766 0.032104,0.032104 0.069915,0.062578 0.1104815,0.082861 0.051387,0.025694 0.1156267,0.042907 0.1726276,0.048336 0.025205,0.0024 0.050661,-0.0011 0.075956,0 0.1243461,0.00541 0.2487424,0.010828 0.3728755,-0.0069 0.084373,-0.012053 0.1830578,-0.038007 0.2623938,-0.069051 0.023964,-0.00938 0.045584,-0.023965 0.069051,-0.034525 0.022607,-0.010173 0.047114,-0.016074 0.069051,-0.02762 0.023564,-0.012402 0.085672,-0.05878 0.1104817,-0.075956 0.037321,-0.025838 0.09635,-0.075314 0.1173866,-0.1173867 0.0077,-0.0154 0.014344,-0.041431 0.013812,-0.041431 -0.00196,0 -0.00164,0.017434 0.00691,0.034525"
     id="path27" />
  <path
     style="fill:none;fill-opacity:0.866667;stroke:#000000;stroke-width:0.105836;stroke-linecap:round;stroke-linejoin:round;stroke-dasharray:none;stroke-opacity:1;paint-order:stroke fill markers"
     d="m 0.92528356,2.3477343 c 0.0023,0.00921 -0.0023,0.029922 0.0069,0.02762 0.00921,-0.0023 -0.013616,-0.034331 -0.0069,-0.02762 0.11508504,0.115085 -0.0023,0.032991 0.062146,0.075956 0.02903,0.019353 0.096339,0.038749 0.13119694,0.041431 0.034424,0.00265 0.069051,0 0.1035765,0 0.041884,0 0.069131,0.00228 0.1104816,-0.0069 0.050693,-0.011265 0.1459553,-0.035728 0.1933428,-0.055241 0.017159,-0.00707 0.03152,-0.019773 0.048336,-0.02762 0.017821,-0.00832 0.037651,-0.011921 0.055241,-0.020715 0.035818,-0.017909 0.069044,-0.042413 0.1035766,-0.062146 0.00632,-0.00361 0.014659,-0.00287 0.020715,-0.00691 0.00192,-0.00128 -0.00163,-0.00528 0,-0.0069 0.00915,-0.00915 0.00691,0.031974 0.00691,0.034525 0,0.032306 0.011792,0.06818 0.02762,0.096671 0.039537,0.071166 0.1038972,0.1184984 0.1864378,0.1311969 0.031849,0.0049 0.064448,0 0.096671,0 0.1009378,0 0.1897812,-0.024102 0.276204,-0.075956 0.037155,-0.022293 0.06623,-0.045515 0.096672,-0.075956 0.01124,-0.011241 0.015807,-0.012896 0.020715,-0.02762 7.409e-4,-0.00218 0,-0.00921 0,-0.00691 0,0.029869 0.00758,0.016506 0.013809,0.041431 0.00111,0.00447 -0.00206,0.00969 0,0.01381 0.00291,0.00582 0.0099,0.0086 0.013809,0.01381 0.032695,0.043593 0.075291,0.063969 0.1311969,0.069051 0.1228943,0.011172 0.2924399,-0.069611 0.3866856,-0.1450071 0.032663,-0.02613 0.067907,-0.053334 0.089766,-0.089766 0.00486,-0.00809 0.013809,-0.018451 0.013809,-0.02762 0,-0.0023 0,-0.00921 0,-0.00691 0,0.013092 -0.00573,0.043772 0,0.055241 0.00291,0.00582 0.00974,0.00873 0.013812,0.01381 0.05694,0.071175 0.1103392,0.084684 0.200248,0.096671 0.2398514,0.03198 0.504505,-0.029779 0.7250355,-0.1242918 0.037302,-0.015987 0.074264,-0.037132 0.1104815,-0.055241 0.0056,-0.0028 0.036245,-0.034526 0.041431,-0.034526 0.00425,0 -0.00691,0.026615 -0.00691,0.02762 0,0.010886 -0.00214,0.037667 0,0.048336 0.011962,0.059811 0.056069,0.1149619 0.1035765,0.1519122 0.094708,0.073662 0.2894026,0.067068 0.4004959,0.041431 0.058041,-0.013394 0.1099145,-0.043543 0.1657222,-0.062146"
     id="path28" />
  <rect
     style="fill:none;fill-opacity:0.866667;stroke:#000000;stroke-width:0.158755;stroke-linecap:round;stroke-linejoin:round;stroke-dasharray:none;stroke-opacity:1;paint-order:stroke fill markers"
     id="rect28"
     width="1.0583637"
     height="1.0583637"
     x="1.131439"
     y="3.4937289" />
  <path
     style="fill:none;fill-opacity:0.866667;stroke:#000000;stroke-width:0.151955;stroke-linecap:round;stroke-linejoin:round;stroke-dasharray:none;stroke-opacity:1;paint-order:stroke fill markers"
     d="m 3.5255971,3.45801 c 0.099407,0.3618081 -0.013255,0.72001 -0.072809,1.0791895 0.098621,0.058006 0.3230934,0.1029719 0.6221059,0.039606 C 4.2597272,4.537637 4.2032371,4.4781199 4.7036142,4.5570094 4.9458162,4.3281679 4.7236265,3.8128388 4.8095272,3.4283133 4.7011564,3.3396157 4.5980562,3.3242089 4.4763519,3.3226518 c -0.2294472,0 -0.7604016,0.019768 -0.9474269,0.1353649"
     id="path29"
     sodipodi:nodetypes="cssccsc" />
</svg>
