<?xml version="1.0" standalone="yes"?>
<svg xmlns="http://www.w3.org/2000/svg" width="2200" height="1650">
<path style="fill:#c7c5c1; stroke:none;" d="M0 0L0 1650L2200 1650L2200 0L0 0z"/>
<path style="fill:#c44854; stroke:none;" d="M1713.67 126.333C1713.22 126.777 1714.28 126.722 1714.33 126.667C1714.78 126.222 1713.72 126.278 1713.67 126.333z"/>
<path style="fill:#45403a; stroke:none;" d="M1715 126.479C1700.63 129.436 1690.07 146.712 1684.38 159C1672.77 184.038 1662.56 221.402 1692 239.07C1696.37 241.693 1701 242.854 1706 243.572C1712.07 244.444 1718.03 243.583 1724 242.385C1753.89 236.391 1772 204.563 1772 176C1772 168.012 1771.89 157.882 1767.3 151C1759.38 139.129 1747.73 139.261 1736 134.436C1727.94 131.123 1724.9 124.443 1715 126.479z"/>
<path style="fill:#c44854; stroke:none;" d="M1709 128L1710 129L1709 128M1706 130L1707 131L1706 130M1701 134L1702 135L1701 134M1700 135L1701 136L1700 135z"/>
<path style="fill:#c7c5c1; stroke:none;" d="M1740 150C1735.21 147.158 1729.62 146.157 1725 143.277C1722.13 141.487 1719.71 138.283 1716 138.542C1704.61 139.335 1694.61 155.17 1689.79 164C1682.79 176.852 1675.03 192.9 1677.21 208C1680.9 233.626 1709.16 240.539 1730 231.204C1737.2 227.982 1744.11 223.865 1749.39 217.911C1756.82 209.514 1761.88 199.695 1765.12 189C1769.26 175.322 1770.66 160.373 1756.04 153.005C1751.96 150.948 1743.81 145.811 1740 150z"/>
<path style="fill:#c44854; stroke:none;" d="M1709 141L1710 142L1709 141M1694 142L1695 143L1694 142M1706 143L1707 144L1706 143M1737 148L1738 149L1737 148M1752.67 151.333C1752.22 151.778 1753.28 151.722 1753.33 151.667C1753.78 151.222 1752.72 151.278 1752.67 151.333M1697 152L1698 153L1697 152M1754.67 152.333C1754.22 152.778 1755.28 152.722 1755.33 152.667C1755.78 152.223 1754.72 152.278 1754.67 152.333M1769.33 154.667C1769.28 154.722 1769.22 155.778 1769.67 155.333C1769.72 155.278 1769.78 154.222 1769.33 154.667M1695 155L1696 156L1695 155M1760 155L1761 156L1760 155M1839 157C1840.77 157.779 1842.04 157.912 1844 158C1842.23 157.221 1840.96 157.088 1839 157M1693 158L1694 159L1693 158z"/>
<path style="fill:#45403a; stroke:none;" d="M1851 168C1850 157.089 1839.36 156.035 1831 160.584C1818.04 167.635 1808.54 180.862 1802.46 194C1795.12 209.884 1794.53 234.098 1809.29 246.211C1827.55 261.192 1860.23 250.318 1873.53 233.999C1883.92 221.26 1885.82 204.502 1883.26 189C1882.25 182.881 1882.46 178.074 1877.54 173.404C1870.73 166.937 1859.57 166.917 1851 168z"/>
<path style="fill:#c44854; stroke:none;" d="M1832.67 159.333C1832.22 159.778 1833.28 159.722 1833.33 159.667C1833.78 159.222 1832.72 159.278 1832.67 159.333M1683.33 160.667C1683.28 160.722 1683.22 161.778 1683.67 161.333C1683.72 161.278 1683.78 160.222 1683.33 160.667M1771 162L1771 167C1771.83 164.97 1771.83 164.03 1771 162M1826 163L1827 164L1826 163M1862 167C1863.51 167.683 1864.31 167.826 1866 168C1864.49 167.317 1863.69 167.174 1862 167M1867 168C1868.25 168.685 1868.55 168.749 1870 169C1868.75 168.315 1868.45 168.251 1867 168M1836.67 169.333C1836.22 169.778 1837.28 169.722 1837.33 169.667C1837.78 169.223 1836.72 169.278 1836.67 169.333z"/>
<path style="fill:#c7c5c1; stroke:none;" d="M1846 169C1826.05 169.055 1811.05 187.631 1804.2 205C1800.54 214.291 1799.44 226.632 1806.53 234.815C1813.92 243.331 1827.6 244.757 1838 243.271C1863.36 239.647 1883.21 219.583 1880.94 193C1880.05 182.598 1867.79 178.8 1859 179.015C1856.01 179.088 1851.95 180.719 1849.1 179.647C1844.39 177.873 1845 172.84 1846 169z"/>
<path style="fill:#c44854; stroke:none;" d="M1870 169C1871.46 170.081 1872.25 170.436 1874 171C1872.46 169.733 1871.95 169.511 1870 169M1829 173L1830 174L1829 173M1879 175C1879.68 176.58 1879.8 176.777 1881 178C1880.32 176.42 1880.2 176.223 1879 175M1846 178L1847 179L1846 178M2069.33 180.667C2069.28 180.722 2069.22 181.778 2069.67 181.333C2069.72 181.277 2069.78 180.222 2069.33 180.667M1871.67 181.333C1871.22 181.777 1872.28 181.722 1872.33 181.667C1872.78 181.223 1871.72 181.277 1871.67 181.333M1883 181C1883 185.113 1882.83 189.04 1884 193C1885.41 189.388 1884.52 184.52 1883 181z"/>
<path style="fill:#45403a; stroke:none;" d="M1706 191C1706.93 190.497 1707.96 190.273 1708.65 189.39C1714.42 181.984 1702.23 179.927 1703.95 186.975C1704.28 188.324 1705.35 189.816 1706 191z"/>
<path style="fill:#c44854; stroke:none;" d="M1674.33 184.667C1674.28 184.722 1674.22 185.778 1674.67 185.333C1674.72 185.277 1674.78 184.222 1674.33 184.667M1771.33 185.667C1771.28 185.722 1771.22 186.778 1771.67 186.333C1771.72 186.277 1771.78 185.223 1771.33 185.667M1877 185L1878 186L1877 185M1814 187L1815 188L1814 187M791 215C796.308 208.599 805.176 207.313 813 205.803C833.162 201.913 855.401 203 872 216.468C877.627 221.033 883.608 226.811 888.25 232.375C891.054 235.736 891.562 239.568 896 241C894.647 237.074 893.163 227.887 889 227C890.478 218.069 879.894 210.496 873.985 205.001C851.498 184.088 815.219 184.612 788 195.248C785.313 196.298 781.585 198.257 780.736 201.289C779.168 206.895 786.365 213.687 791 215M1678.33 191.667C1678.28 191.722 1678.22 192.778 1678.67 192.333C1678.72 192.278 1678.78 191.223 1678.33 191.667M1881 191L1881 201C1882.35 197.793 1882.35 194.207 1881 191M1769.33 195.667C1769.28 195.722 1769.22 196.778 1769.67 196.333C1769.72 196.278 1769.78 195.222 1769.33 195.667M1672.33 196.667C1672.28 196.722 1672.22 197.778 1672.67 197.333C1672.72 197.278 1672.78 196.222 1672.33 196.667M1808 196L1809 197L1808 196M1759.33 202.667C1759.28 202.722 1759.22 203.778 1759.67 203.333C1759.72 203.278 1759.78 202.222 1759.33 202.667M1672.33 205.667C1672.28 205.722 1672.22 206.778 1672.67 206.333C1672.72 206.278 1672.78 205.222 1672.33 205.667M1765 206L1766 207L1765 206z"/>
<path style="fill:#45403a; stroke:none;" d="M1833 207C1834.53 210.901 1835.38 215.72 1839 218C1839 212.935 1840.12 205.341 1833 207z"/>
<path style="fill:#c44854; stroke:none;" d="M1756 208L1757 209L1756 208M1834 209L1834 212C1834.7 210.447 1834.7 210.553 1834 209M1839 209L1839 213C1839.71 211.24 1839.71 210.76 1839 209M1879.33 209.667C1879.28 209.722 1879.22 210.778 1879.67 210.333C1879.72 210.277 1879.78 209.223 1879.33 209.667M1673.33 211.667C1673.28 211.722 1673.22 212.778 1673.67 212.333C1673.72 212.278 1673.78 211.222 1673.33 211.667M1678.33 212.667C1678.28 212.722 1678.22 213.778 1678.67 213.333C1678.72 213.278 1678.78 212.222 1678.33 212.667M1753 212L1754 213L1753 212M1835 213L1835 216C1835.7 214.447 1835.7 214.553 1835 213M1679.33 215.667C1679.28 215.722 1679.22 216.778 1679.67 216.333C1679.72 216.278 1679.78 215.222 1679.33 215.667M1760 215L1761 216L1760 215M1882 215L1882 218C1882.7 216.446 1882.7 216.554 1882 215M1750 216L1751 217L1750 216M961 254C962.125 243.902 972.979 236.783 982 233.96C997.208 229.2 1015.68 230.825 1030 237.992C1035.2 240.593 1039.28 244.717 1044 248C1043.79 243.219 1043.67 237.13 1040.97 233.039C1036.79 226.724 1028.9 223.343 1022 221.004C1004.73 215.154 979.61 213.662 964 224.789C955.185 231.073 944.548 249.245 961 254M1680.33 217.667C1680.28 217.722 1680.22 218.778 1680.67 218.333C1680.72 218.278 1680.78 217.222 1680.33 217.667M1749 217L1750 218L1749 217M853.001 219.664C850.01 220.475 847.724 223.143 844.714 223.702C841.532 224.294 839.076 222.695 836.004 224.608C827.126 230.135 823.741 241.336 822.425 251C820.767 263.175 828.085 285.133 844 281.316C860.373 277.389 868.894 254.093 866.791 239C865.826 232.073 862.721 217.028 853.001 219.664M1681.33 219.667C1681.28 219.722 1681.22 220.778 1681.67 220.333C1681.72 220.278 1681.78 219.222 1681.33 219.667M1676 221L1677 222L1676 221M1745 221L1746 222L1745 221M1801 221L1801 226C1801.83 223.969 1801.83 223.031 1801 221M1753 224L1754 225L1753 224M1752 225L1753 226L1752 225M1751 226L1752 227L1751 226M1802.33 226.667C1802.28 226.722 1802.22 227.778 1802.67 227.333C1802.72 227.278 1802.78 226.222 1802.33 226.667M1680 227L1681 228L1680 227M1749 228L1750 229L1749 228M1733 229L1734 230L1733 229M1748 229L1749 230L1748 229M1682 230L1683 231L1682 230M1691 230L1692 231L1691 230M1747 230L1748 231L1747 230M1799 230L1799 233C1799.7 231.446 1799.7 231.554 1799 230M1694.67 232.333C1694.22 232.778 1695.28 232.722 1695.33 232.667C1695.78 232.222 1694.72 232.278 1694.67 232.333M1874 232L1875 233L1874 232M1722.67 233.333C1722.22 233.778 1723.28 233.722 1723.33 233.667C1723.78 233.222 1722.72 233.278 1722.67 233.333M1743 233L1744 234L1743 233M1805 233L1806 234L1805 233z"/>
<path style="fill:#45403a; stroke:none;" d="M1298 261C1298.99 259.521 1299 259.797 1299 258C1291.25 258 1283.13 257.431 1275.42 258.255C1269.9 258.846 1264.63 260.837 1259 260.946C1254.99 261.023 1251.02 260.083 1247 260C1250.14 256.602 1253.88 256.241 1258 254.475C1262.96 252.351 1267.43 249.384 1273 249.109C1276.78 248.922 1284.28 254.674 1286.97 251.253C1288.85 248.863 1287.02 245.183 1285.71 243.001C1281.92 236.664 1275.4 232.986 1268 234.519C1248.43 238.572 1232.4 255.117 1223.09 272C1207.48 300.327 1198.45 343.345 1229 365.211C1233.43 368.379 1238.68 370.593 1244 371.714C1252.15 373.431 1259.82 372.907 1268 371.949C1277.32 370.858 1287.46 367.537 1296 363.687C1318.25 353.658 1342.45 334.159 1344.9 308C1345.64 299.985 1346.24 289.459 1342.96 282.004C1336.68 267.774 1313.01 254.639 1298 261z"/>
<path style="fill:#c7c5c1; stroke:none;" d="M858 235C855.769 235.546 853.455 236.813 851.168 237.001C849.014 237.178 847.134 236.075 844.961 236.796C837.82 239.168 835.812 247.678 834 254C833.143 256.99 830.393 263.531 833.604 265.958C837.014 268.534 842.292 264.61 844.699 262.37C852.328 255.27 856.689 245.148 858 235z"/>
<path style="fill:#c44854; stroke:none;" d="M1278 235L1279 236L1278 235M1740 235L1741 236L1740 235M1801 235L1802 236L1801 235M1688 236L1689 237L1688 236M1738 236L1739 237L1738 236M1281 237L1282 238L1281 237M1736 237L1737 238L1736 237M1802 237L1803 238L1802 237M1809 237L1810 238L1809 237M1282 238L1283 239L1282 238M1734 238L1735 239L1734 238M1854.67 238.333C1854.22 238.778 1855.28 238.722 1855.33 238.667C1855.78 238.223 1854.72 238.277 1854.67 238.333M1732 239L1733 240L1732 239M1803 239L1804 240L1803 239M1814 240L1815 241L1814 240M1865 241L1866 242L1865 241M1698.67 242.333C1698.22 242.777 1699.28 242.722 1699.33 242.667C1699.78 242.222 1698.72 242.278 1698.67 242.333M1819 242C1820.25 242.685 1820.55 242.749 1822 243C1820.75 242.315 1820.45 242.251 1819 242M1717 243C1718.25 243.685 1718.55 243.749 1720 244C1718.75 243.315 1718.45 243.251 1717 243M1806 243L1807 244L1806 243M1286 244L1287 245L1286 244M1807 244L1808 245L1807 244M1861 244L1862 245L1861 244M909 247C909.634 256.535 917.062 264.506 918.996 274C921.837 287.942 914.722 301.674 907.11 312.999C904.204 317.324 899.373 323.61 894 324.884C891.494 325.478 888.513 324.298 886 324C886.374 328.869 890.258 335.466 895 337C895.497 343.61 905.403 354 912 354.917C913.895 355.18 925.847 354.612 922 352C924.224 351.316 926.906 351.102 928.958 349.975C935.133 346.582 934 338.94 934 333C923.862 333.294 911.034 347.817 904 335C905.635 335.545 905.455 335.365 906 337C912.848 333.806 916.89 327.36 920.576 321C930.523 303.834 931.92 287.777 925.667 269C922.747 260.232 919.686 248.191 909 247M1243 247L1244 248L1243 247M1288 248L1288 252C1288.71 250.24 1288.71 249.76 1288 248M1280 250L1281 251L1280 250M1846 250C1847.25 250.685 1847.55 250.749 1849 251C1847.75 250.315 1847.45 250.251 1846 250M1261 252L1262 253L1261 252M1825.67 252.333C1825.22 252.777 1826.28 252.722 1826.33 252.667C1826.78 252.222 1825.72 252.278 1825.67 252.333M1261 255C1261 257.89 1258.52 257.156 1256 256.667C1252.15 255.918 1248.35 255.817 1247 260C1264.49 260.751 1281.41 258.002 1299 258L1298 261C1308.83 257.622 1319.76 261.505 1329 267.849C1332.86 270.497 1335.73 274.008 1340 276C1331.74 258.28 1305.67 252.886 1288 254.089C1279.02 254.701 1269.93 256.657 1261 255M1255.67 255.333C1255.22 255.778 1256.28 255.722 1256.33 255.667C1256.78 255.222 1255.72 255.278 1255.67 255.333M999 262L999 258C992.972 258.981 990.851 265.122 988.012 270C981.964 280.389 982 292.279 982 304C982 308.955 981.476 314.239 983.108 319C985.113 324.846 991.064 334.589 998.015 334.798C1009.93 335.156 1015.77 321.272 1018.83 312C1022.74 300.163 1023.83 288.137 1020.71 276C1019.62 271.742 1018.73 266.565 1014.89 263.894C1010.56 260.879 1004.01 262.18 999 262M1232 258L1233 259L1232 258M1267 266C1269.33 266.984 1271.46 266.981 1274 267C1271.67 266.016 1269.54 266.019 1267 266z"/>
<path style="fill:#c7c5c1; stroke:none;" d="M1274 266.428C1264.87 267.518 1256.06 268.16 1247 269.996C1242.71 270.865 1238.51 270.943 1235.19 274.148C1230.83 278.348 1227.96 284.583 1225.46 290C1218.52 305.034 1210.39 329.091 1219.06 345C1227.22 359.979 1246.12 364.417 1262 362.829C1287.91 360.239 1312.84 344.79 1328.08 324C1334.65 315.031 1343.3 298.213 1337.43 287C1333.55 279.604 1325.26 275.403 1318 272.019C1312.14 269.288 1305.35 268.634 1299 267.729C1291.3 266.631 1281.7 265.508 1274 266.428z"/>
<path style="fill:#c44854; stroke:none;" d="M1280 266C1283.7 267.552 1288.02 267 1292 267C1288.3 265.448 1283.98 266 1280 266z"/>
<path style="fill:#c7c5c1; stroke:none;" d="M1001 272C998.902 278.759 994.083 284.302 991.989 291C990.313 296.361 991 302.456 991 308C991 311.411 989.713 318.531 992.742 320.972C997.556 324.851 1004.06 318.409 1006.65 314.911C1014.33 304.542 1015.99 289.577 1016 277C1014.33 277.06 1013.56 275.975 1012 276C1010.6 276.022 1009.28 277.434 1008 277.333C1005.21 277.114 1004.33 274.112 1003 272L1001 272z"/>
<path style="fill:#c44854; stroke:none;" d="M1236 272L1237 273L1236 272M1235 273L1236 274L1235 273M1221.33 274.667C1221.28 274.722 1221.22 275.778 1221.67 275.333C1221.72 275.278 1221.78 274.222 1221.33 274.667M1340 276C1340.68 277.58 1340.8 277.777 1342 279C1341.32 277.42 1341.2 277.223 1340 276M1232 277L1233 278L1232 277M1329 278L1330 279L1329 278M1229 282L1230 283L1229 282M1343.33 282.667C1343.28 282.722 1343.22 283.778 1343.67 283.333C1343.72 283.278 1343.78 282.222 1343.33 282.667M1217.33 283.667C1217.28 283.722 1217.22 284.778 1217.67 284.333C1217.72 284.277 1217.78 283.223 1217.33 283.667M1336 285L1337 286L1336 285M1752.67 286.333C1752.22 286.778 1753.28 286.722 1753.33 286.667C1753.78 286.222 1752.72 286.278 1752.67 286.333z"/>
<path style="fill:#45403a; stroke:none;" d="M1786 286L1786 293C1782.07 293.818 1781.15 297.534 1779.54 301C1776.49 307.57 1772.6 313.41 1766.96 318.06C1762.43 321.791 1758.02 322.221 1755.93 315.985C1755.28 314.062 1754.82 311.995 1754.46 310C1753.94 307.022 1754 304.012 1754 301L1754 287C1749.64 289.667 1750.01 294.294 1750 299C1749.99 308.087 1749.79 325.75 1759.19 330.968C1764.94 334.163 1770.77 327.838 1774.13 323.985C1783.37 313.38 1788 299.86 1788 286L1786 286z"/>
<path style="fill:#c44854; stroke:none;" d="M1225 290L1226 291L1225 290z"/>
<path style="fill:#45403a; stroke:none;" d="M1975 315C1977.68 313.988 1980.17 312.093 1982.91 311.343C1989.02 309.673 1994.28 311.984 1998 305C1996.55 303.291 1995.55 300.674 1993.57 299.512C1987.18 295.766 1975.02 297.61 1973.41 306.17C1972.88 308.973 1974.38 312.291 1975 315z"/>
<path style="fill:#c44854; stroke:none;" d="M1986 297C1987.51 297.683 1988.31 297.826 1990 298C1988.49 297.317 1987.69 297.174 1986 297z"/>
<path style="fill:#45403a; stroke:none;" d="M1997 302C2000.48 301.155 2002.78 300.501 2004 297C2000.3 297.574 1998.68 298.655 1997 302z"/>
<path style="fill:#c44854; stroke:none;" d="M2004 297C2002.28 299.985 2000.22 300.863 1997 302L1999 298L1990 298C1993.97 300.163 1995.5 303.559 1999 306L2000 302L2002 302L2004 309C2006.31 304.703 2007.83 301.79 2013 301L2013 298L2004 297M1976 301L1977 302L1976 301z"/>
<path style="fill:#45403a; stroke:none;" d="M2005 333C2005.86 326.212 2008.8 319.778 2009 313C2012.65 313.619 2016.72 314.517 2019.95 316.414C2022.53 317.932 2024.13 320.06 2027 321L2030 309C2026.97 308.198 2024.12 307.311 2021 307L2021 304C2016.6 303.007 2011.05 299.177 2007.03 303.032C2002.17 307.688 2002.4 315.963 2001.12 322C2000.55 324.659 1999.41 328.033 2000.6 330.682C2001.48 332.623 2003.17 332.694 2005 333z"/>
<path style="fill:#c44854; stroke:none;" d="M1975 302L1976 303L1975 302M1776 307L1777 308L1776 307M1750.33 310.667C1750.28 310.722 1750.22 311.778 1750.67 311.333C1750.72 311.278 1750.78 310.222 1750.33 310.667M1774 310L1775 311L1774 310M1981 311L1982 312L1981 311M2029 312C2027.95 315.266 2027.18 318.348 2025 321C2027.7 321.969 2030.16 321.353 2033 321C2032.72 317.201 2031.48 314.856 2029 312M1343 313L1343 316C1343.7 314.446 1343.7 314.554 1343 313M1978 313L1979 314L1978 313M2009 313L2009 317C2009.71 315.24 2009.71 314.76 2009 313M1770 315L1771 316L1770 315M1779 316L1780 317L1779 316M2001 316L2001 321C2001.83 318.969 2001.83 318.031 2001 316M1751 317L1751 320C1751.7 318.447 1751.7 318.554 1751 317M1216.33 318.667C1216.28 318.722 1216.22 319.778 1216.67 319.333C1216.72 319.278 1216.78 318.222 1216.33 318.667M1331 318L1332 319L1331 318M2022 318L2022 321L2024 321L2024 318L2022 318z"/>
<path style="fill:#45403a; stroke:none;" d="M2040.33 318.667C2040.28 318.722 2040.22 319.778 2040.67 319.333C2040.72 319.278 2040.78 318.222 2040.33 318.667z"/>
<path style="fill:#c44854; stroke:none;" d="M1752.33 320.667C1752.28 320.722 1752.22 321.778 1752.67 321.333C1752.72 321.278 1752.78 320.222 1752.33 320.667M1757 320L1758 321L1757 320M2006 323L2006 326C2006.7 324.447 2006.7 324.554 2006 323M1327 324L1328 325L1327 324M1773 324L1774 325L1773 324M1772 325L1773 326L1772 325M1337 328L1338 329L1337 328M1756 328L1757 329L1756 328M1323 329L1324 330L1323 329M1768 329L1769 330L1768 329M2005 329C2004.47 331.69 2003.88 333.02 2002 335C2002.55 336.875 2003.11 338.256 2004 340C2006.26 336.695 2006.55 332.692 2005 329M1322 330L1323 331L1322 330M1331 337L1332 338L1331 337z"/>
<path style="fill:#45403a; stroke:none;" d="M2001 337C2000.07 344.395 2001.94 350.667 2002 358L2007 359C2006.14 352.184 2007.26 341.348 2001 337z"/>
<path style="fill:#c44854; stroke:none;" d="M1210 338L1210 341C1210.7 339.446 1210.7 339.554 1210 338M1314 338L1315 339L1314 338M1471 449C1471.13 433.911 1482.81 417.575 1490.4 405C1496.71 394.546 1504.33 384.61 1513 376.004C1522.61 366.463 1536.79 354.709 1551 354.04C1561.15 353.562 1571.06 358.016 1572.7 369C1575.35 386.75 1571.28 410.031 1563.16 426C1559.16 433.857 1552.5 440.598 1547.7 448C1544.18 453.42 1541.11 459.6 1544.56 465.906C1545.48 467.602 1547.17 470.039 1549.32 470.168C1552.3 470.346 1554.7 467.031 1556.33 464.995C1560.89 459.305 1564.17 452.63 1567.14 446C1572.68 433.616 1582.5 423.505 1592 414C1599.91 406.091 1607.63 398.195 1617 392C1612.74 403.725 1608.56 414.64 1606.2 427C1604.58 435.477 1604.66 444.382 1605.04 453C1605.29 458.635 1606.56 463.933 1609 469C1610.72 472.572 1612.37 476.036 1615.11 478.961C1632.96 498.002 1661.11 478.904 1678 467.667C1681.7 465.204 1685.38 462.727 1689 460.14C1693.67 456.802 1698.43 453.565 1703 450.102C1710.06 444.758 1717.16 434.589 1726 432.773C1747.28 428.401 1772.39 429.91 1792 439.658C1801.36 444.312 1808.72 452.697 1818 457C1819.08 453.343 1819 449.801 1819 446L1815 447L1816 442C1793.57 425.378 1769.91 418 1742 418C1735.09 418 1723.47 416.705 1717.42 420.434C1712.5 423.475 1710.22 428.374 1706.46 432.405C1702.13 437.031 1695.86 441.434 1690.83 445.32C1680.2 453.543 1666.87 459.468 1655 465.701C1646.99 469.907 1634.3 477.278 1625 474.146C1613.81 470.379 1611.99 459.245 1612 449C1612.02 433.738 1616.73 417.478 1623.89 404C1626.52 399.049 1630.19 394.813 1633.01 390C1637.42 382.47 1635.02 374.107 1626 374L1628 373C1622.7 370.953 1617.31 375.148 1613 378.004C1600.82 386.071 1591.77 397.709 1580 406C1580.5 394.415 1583.07 383.579 1580.25 372C1578.68 365.575 1576.02 358.427 1572.2 353C1560.81 336.828 1541.14 339.563 1526 348.284C1502.41 361.872 1485.75 385.808 1472.57 409C1466.2 420.207 1452.73 442.938 1471 449M1308 343L1309 344L1308 343M1321 347L1322 348L1321 347M1320 348L1321 349L1320 348M1215 351L1216 352L1215 351M1316 351L1317 352L1316 351M1294 352L1295 353L1294 352M1228 355L1229 356L1228 355M1310 355L1311 356L1310 355M1279.67 358.333C1279.22 358.778 1280.28 358.722 1280.33 358.667C1280.78 358.222 1279.72 358.278 1279.67 358.333M2003 358C2004.15 360.249 2004.75 360.847 2007 362C2006.16 359.374 2005.63 358.839 2003 358M1303 359L1304 360L1303 359M1241 361C1242.25 361.685 1242.55 361.749 1244 362C1242.75 361.315 1242.45 361.251 1241 361M1229 365L1230 366L1229 365M1238.67 370.333C1238.22 370.778 1239.28 370.722 1239.33 370.667C1239.78 370.222 1238.72 370.278 1238.67 370.333M1263.67 372.333C1263.22 372.778 1264.28 372.722 1264.33 372.667C1264.78 372.223 1263.72 372.278 1263.67 372.333M879 407C880.84 418.373 891.87 411.172 899 411C898.594 408.907 898.783 408.98 897 408L897 406C898.783 405.02 898.594 405.093 899 403C890.029 402.999 881.565 401.456 875.652 393.826C872.93 390.314 871.904 378.422 865.974 378.621C861.822 378.76 863.146 385.594 863.761 388C865.582 395.122 870.489 407.127 879 407z"/>
<path style="fill:#c7c5c1; stroke:none;" d="M881 402C882.314 403.618 882.877 403.693 885 404C883.457 402.733 882.952 402.511 881 402z"/>
<path style="fill:#c44854; stroke:none;" d="M892.667 413.333C892.222 413.778 893.278 413.722 893.333 413.667C893.777 413.223 892.722 413.278 892.667 413.333z"/>
<path style="fill:#45403a; stroke:none;" d="M420 478C420.895 488.266 423.836 497.441 422.83 508C421.233 524.768 417.849 541.545 414.339 558C412.4 567.089 409.406 576.688 409.04 586C408.644 596.07 416.466 611.868 426.001 616.057C433.485 619.345 442.979 619 451 619C467.161 619 483.253 618.205 499 614.077C511.017 610.927 526.088 602.322 538 608C538.976 602.496 539.291 594.699 536 590C533.294 591.506 531.087 591.91 528 592L528 589C517.17 589.223 506.449 593.497 496 596.105C480.681 599.929 463.81 602.373 448 601.985C440.592 601.804 425.383 602.06 420.357 595.866C417.735 592.635 419.067 588.675 419.8 585C421.33 577.332 422.829 569.685 424.261 562C427.186 546.3 431.637 529.046 430.961 513C430.451 500.91 426.734 489.786 425 478L420 478z"/>
<path style="fill:#c44854; stroke:none;" d="M425 479L425 482C425.696 480.446 425.696 480.554 425 479M427.333 487.667C427.277 487.723 427.223 488.778 427.667 488.333C427.722 488.278 427.778 487.222 427.333 487.667z"/>
<path style="fill:#45403a; stroke:none;" d="M1912 534C1925.17 529.524 1933.21 513.377 1945 506C1939.3 516.657 1928.4 527.046 1925.69 538.996C1924.72 543.27 1927.42 551.548 1933.02 551.118C1937.16 550.799 1941.09 545.815 1944 543.282C1951.23 536.992 1958.41 529.383 1967 525C1964.88 529.459 1963.07 533.007 1964 538C1959.03 541.646 1964.14 545.774 1966 550C1973.91 549.567 1979.19 543.769 1985 538.92C1994.9 530.657 2004.67 522.079 2015 514.35C2022.11 509.032 2030.08 504.191 2032 495C2024.78 495.978 2019.09 499.621 2013 503.425C1999.35 511.945 1987.94 524.06 1974 532C1977.48 523.621 1980.72 516.191 1978 507C1976.69 507.768 1976.77 507.686 1976 509L1974 509C1971.26 506.01 1967.9 508.608 1965 510.514C1957.83 515.22 1951.74 522.413 1944 526C1948.59 518.858 1955.83 511.598 1957.43 503C1958.37 497.948 1956.64 492.043 1956 487C1941.54 487.169 1926.64 504.865 1917.71 515C1914.9 518.195 1910.11 521.7 1909.01 526C1908.23 529.011 1910.51 531.615 1912 534z"/>
<path style="fill:#c44854; stroke:none;" d="M1956 488L1956 491C1956.7 489.447 1956.7 489.554 1956 488M1942 492L1943 493L1942 492M1938 495L1939 496L1938 495M1957 496L1957 499C1957.7 497.446 1957.7 497.554 1957 496M429 497L429 500C429.696 498.446 429.696 498.554 429 497M2030 499L2030 502C2030.7 500.447 2030.7 500.553 2030 499M1929 503L1930 504L1929 503M2028 503L2029 504L2028 503M1928 504L1929 505L1928 504M1927 505L1928 506L1927 505M1972 506L1974 509L1976 509C1976.55 507.365 1976.36 507.545 1978 507C1975.95 506.126 1974.25 506.047 1972 506M1939 509L1940 510L1939 509M1938 510L1939 511L1938 510M1965 510L1966 511L1965 510M2015 513L2016 514L2015 513M1918 514L1919 515L1918 514M1917 515L1918 516L1917 515M1958 515L1959 516L1958 515M1979 515L1979 520C1979.83 517.97 1979.83 517.031 1979 515M421.333 517.667C421.278 517.722 421.222 518.778 421.667 518.333C421.722 518.278 421.778 517.222 421.333 517.667M2009 518L2010 519L2009 518M1953 519L1954 520L1953 519M1912 520L1913 521L1912 520M1978.33 521.667C1978.28 521.722 1978.22 522.778 1978.67 522.333C1978.72 522.278 1978.78 521.222 1978.33 521.667M2005 521L2006 522L2005 521M1987 522L1988 523L1987 522M2004 522L2005 523L2004 522M1948 523L1949 524L1948 523M727 922C742.751 919.684 757.994 915.186 774 914.089C783.287 913.453 792.695 914.213 802 913.985C836.599 913.138 871.413 913.475 906 911.961C932.649 910.794 959.377 908.744 986 906.911C1000.08 905.941 1013.85 904 1028 904L1030 913C1039.75 914.781 1041.7 910.985 1041 902C1045.49 901.907 1049.62 900.903 1054 900C1054.32 896.374 1058.09 887.772 1054.44 885.082C1051.93 883.235 1043.21 886.747 1040 887C1040 860.747 1041.11 834.225 1039.96 808C1039.61 799.999 1038.39 792.001 1038.04 784C1037.43 770.023 1038.57 755.977 1037.96 742C1036.9 717.708 1034.97 693.408 1036.04 669C1036.8 651.738 1038.53 634.204 1040.17 617C1042.15 596.161 1041.13 574.847 1039.96 554C1039.58 547.031 1039.93 535.385 1032 533C1033.04 531.813 1033.34 531.397 1034 530C1028.25 530.446 1027.25 533.655 1027 539L1031 539C1029.78 537.805 1029.58 537.684 1028 537L1029 533C1030.82 534.157 1030.83 534.145 1033 534C1031.67 538.885 1030.54 541.711 1025 541C1033.34 585.922 1024.01 632.006 1022.04 677C1020.16 719.922 1025.79 763.078 1026 806C1026.1 826.269 1027 846.654 1027 867C1027 871.879 1029.3 884.892 1024.68 887.972C1022.53 889.411 1019.44 888.927 1017 889.039C1011.99 889.269 1007.02 889.819 1002 890.039C984.328 890.814 966.692 892.265 949 893.039C924.702 894.103 900.364 897.247 876 896.996C853.668 896.766 831.341 897 809 897C786.271 897 763.428 896.821 741 901C741 880.634 740.791 860.259 738.83 840C737.164 822.779 733.797 805.296 733.039 788C731.886 761.669 732.114 735.332 730.961 709C730.683 702.652 729.317 696.348 729.039 690C728.287 672.812 728.73 655.079 726.714 638C724.001 615.004 723.825 591.876 720.08 569C719.112 563.088 718.459 556.978 718.09 551C717.944 548.627 717.76 545.56 719.603 543.742C721.925 541.451 726.934 541.301 730 541.089C739.255 540.452 748.723 541 758 541C781.391 541 804.619 540 828 540C841.264 540 854.923 539.572 868 542L868 530L864 533L867 539C863.947 536.47 862.039 534.059 862 530L864 531C864.582 529.63 864.797 528.494 865 527C858.374 526.982 851.615 526.364 845 525.911C840.487 525.601 836.922 524.257 833 527C826.791 522.296 812.625 525 805 525L732 525C723.667 525.003 716.284 526.179 708.001 524.67C705.76 524.261 702.787 523.791 701.618 526.319C700.556 528.615 701.605 531.626 701.83 534C702.269 538.628 701.978 543.356 702.001 548C702.115 571.658 707.924 595.32 708.961 619C710.086 644.7 712.836 670.318 713.961 696C715.142 722.987 714.858 750.013 716.039 777C717.02 799.39 719.705 821.685 721.83 844C723.327 859.719 724 875.188 724 891C724 901.442 722.672 912.261 727 922M1944 524C1944.98 525.783 1944.91 525.594 1947 526C1945.86 524.984 1945.39 524.692 1944 524M1947 524L1948 525L1947 524M1932.33 525.667C1932.28 525.722 1932.22 526.778 1932.67 526.333C1932.72 526.278 1932.78 525.222 1932.33 525.667M1963 526L1964 527L1963 526M1982 526L1983 527L1982 526z"/>
<path style="fill:#c7c5c1; stroke:none;" d="M850.333 527.667C850.278 527.722 850.222 528.778 850.667 528.333C850.723 528.277 850.777 527.222 850.333 527.667z"/>
<path style="fill:#c44854; stroke:none;" d="M1998 527L1999 528L1998 527z"/>
<path style="fill:#c7c5c1; stroke:none;" d="M857 529L857 536L859 536C859.078 532.32 860.529 531.014 862 528L857 529z"/>
<path style="fill:#c44854; stroke:none;" d="M1964.33 529.667C1964.28 529.722 1964.22 530.778 1964.67 530.333C1964.72 530.278 1964.78 529.222 1964.33 529.667M419.333 530.667C419.278 530.722 419.222 531.778 419.667 531.333C419.722 531.278 419.778 530.222 419.333 530.667M1929.33 530.667C1929.28 530.722 1929.22 531.778 1929.67 531.333C1929.72 531.278 1929.78 530.222 1929.33 530.667M1958 530L1959 531L1958 530M1910 531L1911 532L1910 531M1993 531L1994 532L1993 531M1129 768C1135.38 764.962 1139.58 757.566 1143.73 752C1152.63 740.072 1161.21 727.907 1170.13 716C1189.01 690.78 1208.65 666.147 1227.63 641C1241.11 623.121 1253.57 604.009 1268.13 587C1279.77 573.406 1293.12 561.405 1304.81 547.996C1307.16 545.306 1313.25 535.14 1307.68 532.619C1302.15 530.115 1296.25 537.751 1293 541C1281.19 552.789 1269.45 564.651 1259.37 578C1224.88 623.708 1189.78 669.031 1155.63 715C1148.92 724.029 1142.33 733.119 1135.42 742C1132.63 745.596 1127.19 750.559 1126.39 755.17C1125.69 759.211 1127.45 764.343 1129 768M1911 532L1912 533L1911 532M1914 533L1915 534L1914 533M1952 535L1953 536L1952 535M1962 535L1962 539C1963.24 537.097 1963.24 536.903 1962 535M1951 536L1952 537L1951 536M1987 536L1988 537L1987 536M1981 541L1982 542L1981 541M427 542L427 545C427.696 543.446 427.696 543.554 427 542M1944 542L1945 543L1944 542M1943 543L1944 544L1943 543M1926 545L1927 546L1926 545M416.333 546.667C416.278 546.722 416.222 547.778 416.667 547.333C416.722 547.278 416.778 546.222 416.333 546.667z"/>
<path style="fill:#c7c5c1; stroke:none;" d="M1027 546L1027 548L1029 548L1029 546L1027 546z"/>
<path style="fill:#c44854; stroke:none;" d="M1975 546L1976 547L1975 546M1974 547L1975 548L1974 547M1936 549L1937 550L1936 549M1971 549L1972 550L1971 549z"/>
<path style="fill:#c7c5c1; stroke:none;" d="M1028 550L1028 554C1028.71 552.24 1028.71 551.76 1028 550z"/>
<path style="fill:#c44854; stroke:none;" d="M1967 550C1968.25 550.685 1968.55 550.749 1970 551C1968.75 550.315 1968.45 550.251 1967 550M1930 551L1931 552L1930 551M414.333 556.667C414.277 556.723 414.223 557.777 414.667 557.333C414.722 557.278 414.778 556.222 414.333 556.667z"/>
<path style="fill:#c7c5c1; stroke:none;" d="M1029 564C1029.67 566.297 1029.97 566.774 1032 568L1032 564L1029 564z"/>
<path style="fill:#c44854; stroke:none;" d="M1287 825C1291.74 819.892 1294.11 812.252 1297.1 806C1302.78 794.156 1309 782.595 1315.17 771C1338.15 727.756 1360.4 683.97 1383.86 641C1388.86 631.846 1393.31 622.422 1397.78 613C1400.13 608.055 1403.07 603.367 1404.4 598C1405.11 595.139 1408.19 582.636 1402.91 582.636C1398.15 582.636 1396.21 592.625 1394.69 596C1388.44 609.91 1380.97 623.253 1374.36 637C1352.29 682.952 1325.64 726.708 1302.26 772C1294.47 787.096 1277.46 808.052 1287 825M1912 584C1914.33 584.984 1916.46 584.981 1919 585C1916.67 584.016 1914.54 584.019 1912 584M1906 585C1907.25 585.685 1907.55 585.749 1909 586C1907.75 585.315 1907.45 585.251 1906 585z"/>
<path style="fill:#45403a; stroke:none;" d="M1863 586C1861.85 588.019 1860.99 588.723 1859 590L1859 592C1861.59 593.345 1863.24 594.668 1865 597C1861.04 595.625 1858.49 593.074 1855 591L1855 597C1867 597.658 1863.19 609.337 1862 618C1859.71 634.698 1861.19 650.332 1861 667C1860.91 674.084 1859 680.821 1859 688C1868.82 688 1878.25 686.466 1888 686.039C1900.71 685.483 1913.35 686.599 1926 685C1925.35 683.7 1925.85 684 1924 684C1926.02 683.66 1926.97 683.677 1929 684C1929 666.053 1929.75 647.928 1928.96 630C1928.45 618.306 1927 606.739 1927 595L1924 595C1923.78 591.624 1923.27 587.198 1919.74 585.603C1915.15 583.537 1908.76 585.73 1904 585.961C1890.48 586.619 1876.17 589.484 1863 586z"/>
<path style="fill:#c7c5c1; stroke:none;" d="M1031 586L1030 588L1032 588C1032 586.147 1032.3 586.65 1031 586z"/>
<path style="fill:#c44854; stroke:none;" d="M1888 586C1890.89 587.213 1893.87 586.998 1897 587C1894.11 585.787 1891.13 586.002 1888 586M526 588L528 592L537 591C534.577 587.327 530.088 588.092 526 588M1858 590C1857.53 594.736 1860.75 596.069 1865 597C1863.4 593.839 1860.85 592.048 1858 590M418 591L418 595C418.71 593.24 418.71 592.759 418 591z"/>
<path style="fill:#c7c5c1; stroke:none;" d="M1859.67 593.333C1859.22 593.778 1860.28 593.722 1860.33 593.667C1860.78 593.222 1859.72 593.278 1859.67 593.333z"/>
<path style="fill:#c44854; stroke:none;" d="M1906 594C1907.51 594.683 1908.31 594.826 1910 595C1908.49 594.317 1907.69 594.174 1906 594z"/>
<path style="fill:#c7c5c1; stroke:none;" d="M1875 596C1873.71 612.36 1871.21 628.63 1870.09 645C1869.29 656.61 1870.5 668.338 1870 680C1875.42 679.888 1880.61 678.46 1886 678.089C1897.23 677.316 1908.74 678 1920 678C1920 656.814 1922.35 634.94 1918.92 614C1918.22 609.751 1919.85 597.741 1916.4 595.028C1913.58 592.82 1908.22 594.82 1905 594.961C1894.99 595.399 1884.9 594.162 1875 596z"/>
<path style="fill:#45403a; stroke:none;" d="M1989 594.562C1981.68 596.368 1975.23 603.082 1971.04 609C1961.68 622.222 1955.87 639.661 1958.44 656C1961.16 673.314 1973.72 685.073 1992 680.39C2008.2 676.241 2020.1 661.357 2025.07 646.075C2026.64 641.255 2028.32 636.156 2027.68 631C2026.11 618.225 2017.82 609.775 2007.01 604.099C2000.6 600.731 1997.54 592.455 1989 594.562z"/>
<path style="fill:#c7c5c1; stroke:none;" d="M1252 595C1225.88 631.469 1197.43 666.122 1170.53 702C1162.52 712.675 1154.29 723.217 1146.45 734C1143.1 738.602 1139.07 742.644 1137 748C1142.2 745.216 1145.36 739.615 1148.88 735C1155.98 725.705 1162.86 716.25 1170.01 707C1189.54 681.742 1209.2 656.527 1228.37 631C1236.74 619.867 1248.58 607.822 1254 595L1252 595z"/>
<path style="fill:#c44854; stroke:none;" d="M1874 596L1874 601C1874.83 598.97 1874.83 598.03 1874 596M1984 596L1985 597L1984 596M1998 596L1999 597L1998 596M1859.67 597.333C1859.22 597.778 1860.28 597.722 1860.33 597.667C1860.78 597.222 1859.72 597.278 1859.67 597.333M422.667 598.333C422.223 598.777 423.278 598.722 423.333 598.667C423.778 598.222 422.722 598.278 422.667 598.333M483.667 598.333C483.223 598.777 484.278 598.722 484.333 598.667C484.778 598.222 483.722 598.278 483.667 598.333M1862 598L1863 599L1862 598M1981 598L1982 599L1981 598M412 599L413 600L412 599M425.667 599.333C425.223 599.777 426.278 599.722 426.333 599.667C426.778 599.222 425.722 599.278 425.667 599.333M478 599C479.248 599.685 479.548 599.749 481 600C479.752 599.315 479.452 599.251 478 599M1863 599L1863 605C1863.95 602.715 1863.95 601.285 1863 599M442 601C447.469 603.295 455.099 602 461 602C455.531 599.705 447.901 601 442 601M2002 601L2003 602L2002 601M2003 602L2004 603L2003 602M538 605L537 609C538.656 607.596 538.751 607.046 538 605M2010 605L2011 606L2010 605M535 606L536 607L535 606M2013 607L2014 608L2013 607M1991 608C1993.05 608.874 1994.75 608.953 1997 609C1994.95 608.126 1993.25 608.047 1991 608M513.667 609.333C513.222 609.778 514.278 609.722 514.333 609.667C514.777 609.223 513.722 609.278 513.667 609.333M1918 609L1918 612C1918.7 610.447 1918.7 610.554 1918 609z"/>
<path style="fill:#c7c5c1; stroke:none;" d="M1987 609.468C1979.55 610.919 1975.76 617.881 1972.23 624C1963.52 639.123 1954.56 668.645 1979 673.985C1982.41 674.729 1985.53 674.889 1988.96 674.231C2005.09 671.143 2018.64 653.559 2021.62 638C2024.35 623.788 2014.39 610.739 2000 609.174C1995.84 608.722 1991.11 608.667 1987 609.468z"/>
<path style="fill:#c44854; stroke:none;" d="M1982 610L1983 611L1982 610M1969 611L1970 612L1969 611M1862 612L1862 615C1862.7 613.446 1862.7 613.554 1862 612M1979 613L1980 614L1979 613M1967 614L1968 615L1967 614M1919 615L1919 618C1919.7 616.447 1919.7 616.554 1919 615M426.667 616.333C426.223 616.777 427.278 616.722 427.333 616.667C427.778 616.222 426.722 616.278 426.667 616.333M1966 616L1967 617L1966 616M479.667 617.333C479.222 617.778 480.278 617.722 480.333 617.667C480.778 617.222 479.722 617.278 479.667 617.333M1976 617L1977 618L1976 617M455 619C458.959 620.661 463.737 620 468 620C464.041 618.339 459.263 619 455 619M1974 620L1975 621L1974 620M2024.33 620.667C2024.28 620.722 2024.22 621.778 2024.67 621.333C2024.72 621.277 2024.78 620.223 2024.33 620.667M1928 623L1928 626C1928.7 624.446 1928.7 624.554 1928 623M1972 623L1973 624L1972 623M1971 625L1972 626L1971 625M1920 626L1920 636C1921.35 632.793 1921.35 629.207 1920 626M1969.33 628.667C1969.28 628.722 1969.22 629.778 1969.67 629.333C1969.72 629.278 1969.78 628.222 1969.33 628.667M1968 631L1969 632L1968 631M2027 636L2027 639C2027.7 637.447 2027.7 637.554 2027 636M2020.33 641.667C2020.28 641.722 2020.22 642.778 2020.67 642.333C2020.72 642.278 2020.78 641.222 2020.33 641.667z"/>
<path style="fill:#c7c5c1; stroke:none;" d="M1376 642C1355.58 680.305 1334.85 718.486 1314.79 757C1308.53 769.035 1301.48 780.674 1295.82 793C1293.55 797.954 1290.68 802.525 1290 808L1292 808C1293.02 802.275 1296.14 797.149 1298.76 792C1303.54 782.581 1308.66 773.294 1313.69 764C1326.83 739.708 1339.46 715.161 1352.86 691C1361.42 675.576 1373.1 659.013 1378 642L1376 642z"/>
<path style="fill:#c44854; stroke:none;" d="M2025 643L2025 646C2025.7 644.446 2025.7 644.553 2025 643M2022 651L2022 654C2022.7 652.447 2022.7 652.554 2022 651M2014 654L2015 655L2014 654M1427 681L1434 682C1440.06 676.283 1452.16 678.304 1460 677.961C1481.25 677.03 1502.71 676 1524 676C1573.97 676 1624.08 675.238 1674 674.015C1698.03 673.426 1722.03 674.554 1746 672.911C1754.44 672.332 1762.59 669.669 1771 669C1771.9 666.528 1776.75 659.27 1773.42 657.175C1771.81 656.164 1770.03 657.839 1768.71 658.564C1765.5 660.339 1761.64 661.341 1758 661.819C1741.32 664.015 1724.8 664 1708 664C1640 664 1572.05 662.974 1504 663C1486.72 663.007 1469.35 664 1452 664C1445.39 664 1435.79 662.437 1430.15 666.728C1425.87 669.982 1427 676.264 1427 681M1958.33 656.667C1958.28 656.723 1958.22 657.777 1958.67 657.333C1958.72 657.278 1958.78 656.222 1958.33 656.667M1860 657L1860 674C1861.88 669.513 1861.88 661.487 1860 657M1963 658L1963 661C1963.7 659.447 1963.7 659.554 1963 658M2011 658L2012 659L2011 658M1870 659L1870 675C1871.81 670.681 1871.81 663.319 1870 659M1959 661L1959 664C1959.7 662.447 1959.7 662.554 1959 661M1966 666L1967 667L1966 666M1961 667L1962 668L1961 667M2001 668L2002 669L2001 668M2011 668L2012 669L2011 668M1962 669L1963 670L1962 669M1998 670L1999 671L1998 670M2009 670L2010 671L2009 670z"/>
<path style="fill:#c7c5c1; stroke:none;" d="M1647 671C1653.44 673.704 1663.03 672 1670 672C1663.56 669.296 1653.97 671 1647 671z"/>
<path style="fill:#c44854; stroke:none;" d="M1993 672C1994.25 672.685 1994.55 672.749 1996 673C1994.75 672.315 1994.45 672.251 1993 672M2003.67 674.333C2003.22 674.777 2004.28 674.722 2004.33 674.667C2004.78 674.222 2003.72 674.278 2003.67 674.333M1999 677L2000 678L1999 677M1882 678C1884.05 678.874 1885.75 678.953 1888 679C1885.95 678.126 1884.25 678.047 1882 678M1929 681C1929 682.797 1928.99 682.521 1928 684C1926.49 683.317 1925.69 683.174 1924 683C1924.65 684.3 1924.15 684 1926 684L1922 685C1925 686.172 1927.84 685.398 1931 685C1930.4 683.44 1929.91 682.377 1929 681M1980 681C1982.05 681.874 1983.75 681.953 1986 682C1983.95 681.126 1982.25 681.047 1980 681M1875 687C1876.25 687.685 1876.55 687.749 1878 688C1876.75 687.315 1876.45 687.251 1875 687z"/>
<path style="fill:#45403a; stroke:none;" d="M1998 714C1988.4 714.733 1984.76 724.51 1984.09 733C1983.88 735.663 1983.61 739.351 1985.18 741.681C1989.29 747.803 1995.07 738.661 1996.15 735C1997.02 732.069 1997.88 728.994 1998.49 726C1999.31 721.923 1998.51 718.052 1998 714z"/>
<path style="fill:#c44854; stroke:none;" d="M1945 716C1946.77 716.779 1948.04 716.912 1950 717C1948.23 716.221 1946.96 716.088 1945 716M1991 716L1992 717L1991 716z"/>
<path style="fill:#45403a; stroke:none;" d="M1937.04 718.063C1927.27 722.872 1926.27 741.827 1928.39 750.999C1930.05 758.173 1937.03 759.334 1943 756.312C1952.61 751.443 1957.16 737.134 1955.81 727C1954.62 718.065 1945.06 714.113 1937.04 718.063z"/>
<path style="fill:#c44854; stroke:none;" d="M1990 717L1991 718L1990 717M1948.67 724.333C1948.22 724.777 1949.28 724.723 1949.33 724.667C1949.78 724.222 1948.72 724.278 1948.67 724.333M1985 724L1985 727C1985.7 725.447 1985.7 725.554 1985 724z"/>
<path style="fill:#c7c5c1; stroke:none;" d="M1947 725L1947 729C1938.2 729.207 1934.82 733.557 1933.58 742C1933.2 744.613 1932.4 748.301 1934.6 750.378C1937.47 753.078 1941.67 749.969 1943.78 747.812C1949.61 741.824 1950.98 732.97 1951 725L1947 725z"/>
<path style="fill:#c44854; stroke:none;" d="M1929.33 728.667C1929.28 728.722 1929.22 729.778 1929.67 729.333C1929.72 729.278 1929.78 728.222 1929.33 728.667M1944 728C1945.25 728.685 1945.55 728.749 1947 729C1945.75 728.315 1945.45 728.251 1944 728M1989 733L1989 735L1991 735L1991 733L1989 733M1935 734L1936 735L1935 734M1927 738L1927 748C1928.35 744.793 1928.35 741.207 1927 738M1933 740L1933 743C1933.7 741.446 1933.7 741.554 1933 740M1947.33 741.667C1947.28 741.723 1947.22 742.777 1947.67 742.333C1947.72 742.278 1947.78 741.222 1947.33 741.667M1992 741L1993 742L1992 741z"/>
<path style="fill:#45403a; stroke:none;" d="M480 742C481.269 749.495 482.439 756.284 481.91 764C481.245 773.713 478.755 783.279 478.09 793C477.321 804.224 477 815.752 477 827C477 833.163 477.769 839.902 476.853 846C476.188 850.425 472.508 853.461 472.123 858C471.705 862.937 474.776 867.108 474.356 872C473.405 883.062 469.504 893.903 469.039 905C468.778 911.241 470.408 917.582 476 921C478.802 908.743 481.74 895.617 482 883C488.971 885.164 495.409 889.106 502 892.219C513.124 897.474 524.308 902.755 535 908.873C539.858 911.652 543.937 915.681 549 918C548.997 913 549.508 905.65 546.973 901.174C544.783 897.307 539.637 894.954 536 892.684C526.986 887.058 517.512 881.973 508 877.248C502.655 874.592 497.294 872.004 492.001 869.244C490.226 868.318 487.009 867.125 486.631 864.827C486.224 862.35 489.325 860.529 491.005 859.359C495.838 855.994 501.028 853.1 506 849.947L531 833.947C534.258 831.879 539.788 829.405 541.393 825.674C543.023 821.885 541.926 815.164 542 811C534.363 811.397 528.238 816.291 522 820.343C510.603 827.746 498.02 837.88 485 842C485 817.578 487.286 793.402 486.996 769C486.908 761.609 486.341 746.762 480 742z"/>
<path style="fill:#c44854; stroke:none;" d="M482.333 743.667C482.278 743.722 482.222 744.778 482.667 744.333C482.722 744.278 482.778 743.222 482.333 743.667M1472 1023C1471.81 1018.88 1470.42 1015.08 1470.09 1011C1468.14 986.728 1466.1 962.331 1465.04 938C1463.16 895.055 1467 851.924 1467 809C1467 792.065 1466.63 774.842 1464.9 758C1464.61 755.223 1461.2 743.537 1456.59 746.176C1452.97 748.25 1455.33 758.732 1455.71 762C1457.51 777.205 1457 792.698 1457 808C1457 861.837 1455.21 915.341 1458.91 969C1459.76 981.299 1460.22 993.826 1462.25 1006C1463.46 1013.28 1464.78 1019.56 1472 1023M481.333 747.667C481.278 747.722 481.222 748.778 481.667 748.333C481.723 748.277 481.777 747.223 481.333 747.667M1951 747L1952 748L1951 747M1943 748L1944 749L1943 748M1940 750L1941 751L1940 750M1949 750L1950 751L1949 750M1944 755L1945 756L1944 755M1933 758C1934.51 758.683 1935.31 758.826 1937 759C1935.49 758.317 1934.69 758.174 1933 758M481 765L481 768C481.696 766.446 481.696 766.554 481 765M480 772L480 775C480.696 773.446 480.696 773.554 480 772M477 799L477 813C478.667 809.028 478.667 802.972 477 799M485 810L485 821C486.431 817.59 486.431 813.41 485 810M536 811L537 812L536 811M528 816L529 817L528 816M541 817L541 820C541.696 818.446 541.696 818.554 541 817M523 819L524 820L523 819M520 821L521 822L520 821M517 823L518 824L517 823M506 830L507 831L506 830M496 836L497 837L496 836M526 836L527 837L526 836z"/>
<path style="fill:#c7c5c1; stroke:none;" d="M1461 836C1461 870.227 1458.54 904.702 1460.04 939C1460.8 956.259 1462.83 973.877 1465 991C1466.66 987.047 1465.37 983.147 1465.09 979C1464.45 969.707 1463.45 960.299 1463.04 951C1461.87 924.363 1462 897.704 1462 871L1462 848C1462 844.017 1462.55 839.699 1461 836z"/>
<path style="fill:#c44854; stroke:none;" d="M523 838L524 839L523 838M520 840L521 841L520 840M517 842L518 843L517 842M512 845L513 846L512 845M501 852L502 853L501 852M471 856L471 861C471.83 858.969 471.83 858.03 471 856M493 857L494 858L493 857M487 861L488 862L487 861M1848 869C1842 870.775 1842.6 875.447 1839.41 879.91C1835.99 884.705 1827.16 890.499 1821 889.728C1814.55 888.922 1813.17 883.465 1812.99 878C1812.89 875.175 1812.91 870.955 1809.72 869.758C1803.45 867.403 1793.64 869 1787 869C1767.44 869 1748.18 869.558 1729 873.88C1721.19 875.641 1709.69 875.666 1704.74 883.044C1699.99 890.122 1701 900.932 1701 909L1701 962C1690.81 964.332 1680.11 973.234 1673.43 981.001C1654.71 1002.74 1636.9 1043.18 1658.33 1069C1671.61 1085 1691.17 1084 1710 1084C1710.69 1100.04 1711 1115.94 1711 1132C1711 1138.31 1709.49 1147.51 1714.02 1152.68C1717.59 1156.76 1728.81 1155.68 1734 1156.42C1754.45 1159.35 1774.74 1158.78 1795 1163C1797.74 1150.77 1802 1138.62 1803 1126L1805 1126C1805.44 1136.13 1807.96 1146.02 1809.56 1156C1810.47 1161.63 1810.42 1167.4 1811.32 1173C1812.24 1178.66 1812.93 1185.2 1819 1187C1823.33 1164.68 1822.71 1141.14 1828 1119C1830.87 1123.97 1830.63 1128.46 1831.17 1134C1832.04 1142.93 1832.47 1152.14 1833.73 1161C1834.3 1165.01 1834.22 1172.48 1837.54 1175.34C1839.34 1176.88 1841.05 1175.82 1841.7 1173.85C1843 1169.89 1842.84 1165.11 1843.42 1161C1845.77 1144.34 1847 1126.83 1847 1110C1851.52 1115.6 1852.88 1122.3 1855.17 1129C1856.22 1132.07 1857.24 1136.19 1860.22 1137.97C1863.42 1139.88 1867.68 1138.4 1871 1137.65C1877.93 1136.1 1884.99 1134.7 1892 1133.59C1907.33 1131.17 1922.71 1129.33 1938 1126.58C1950.95 1124.24 1963.78 1121 1977 1121C1977 1108.5 1975.94 1096.43 1975.09 1084C1974.7 1078.35 1975.37 1072.64 1974.83 1067C1973.67 1054.85 1972 1043.25 1972 1031C1982.59 1029.66 1993.3 1027.09 2004 1027C2004 1024 2005.07 1018.15 2002.4 1016.03C1998.85 1013.22 1991.04 1015.5 1987 1015.95C1974.97 1017.3 1963.05 1019.66 1951 1020.83C1946.38 1021.28 1939.34 1020.46 1935.32 1023.18C1931.46 1025.78 1933.23 1032.76 1937.13 1034.4C1941.02 1036.02 1946.97 1034.24 1951 1033.72C1955.98 1033.07 1960.98 1032.22 1966 1032C1966.03 1041.44 1967.88 1050.65 1968.83 1060C1970.47 1076.09 1971.96 1092.83 1972 1109C1959.84 1109 1948.86 1112.72 1937 1114.71C1921.37 1117.34 1905.69 1119.06 1890 1121.29C1880.31 1122.66 1870.77 1125.23 1861 1126C1859.75 1117.67 1856.03 1107.16 1851.53 1100C1849.82 1097.28 1845.31 1091.83 1842.32 1096.32C1839.91 1099.94 1841.14 1105.9 1840.96 1110C1840.52 1120.17 1839.86 1130.99 1838 1141C1834.74 1131.36 1835.31 1120.96 1833.79 1111C1833.17 1106.92 1831.56 1103.11 1831 1099C1823.12 1099.89 1822.94 1106.37 1821.69 1113C1818.96 1127.52 1816.64 1143.19 1816 1158C1813.46 1150.52 1812.95 1142.73 1811.56 1135C1810.47 1128.9 1808.6 1123.2 1807.84 1117C1807.41 1113.41 1806.97 1103.16 1803.43 1101.18C1799.21 1098.81 1798.27 1107.81 1798.09 1110C1797.04 1122.63 1792.62 1134.48 1791 1147C1781.97 1146.99 1772.99 1145.71 1764 1145.09C1754.65 1144.45 1745.32 1144.65 1736 1143.42C1731.27 1142.8 1722.23 1144.05 1718.6 1140.4C1716.09 1137.87 1716.19 1131.36 1716.04 1128C1715.56 1117.03 1716.66 1105.96 1715.91 1095C1715.64 1091.01 1713.4 1085 1715.2 1081.21C1717.04 1077.33 1722.59 1076.31 1726 1074.37C1733.74 1069.96 1740.55 1065.14 1746.96 1058.91C1762.88 1043.47 1776.83 1014.39 1758.67 995.17C1751.71 987.795 1740.53 983.334 1731 980.414C1720.33 977.145 1711.18 975 1700 975C1703.11 984.129 1710.89 984.82 1719 987.347C1732.39 991.522 1753.34 995.734 1759.86 1010C1764.43 1020 1754.36 1033.48 1748.74 1040.96C1740.13 1052.43 1728.38 1062.83 1715 1068.47C1711.81 1069.82 1708.4 1069.6 1705.17 1070.68C1693.67 1074.55 1681.13 1075.77 1670 1068.99C1655.84 1060.38 1656.57 1047.29 1659.08 1033C1663.86 1005.86 1683.57 979.136 1710 969.544C1717.65 966.767 1726.26 965.429 1732.91 971.275C1736.73 974.642 1737.88 979.463 1743 981C1742.97 968.409 1736.89 956.522 1723 955.177C1718.23 954.716 1713.67 956.371 1709 957C1707.17 942.488 1708 927.625 1708 913C1708 907.06 1706.94 899.199 1710.59 894.055C1715.05 887.765 1726.06 887.327 1733 885.626C1756.89 879.768 1781.61 881 1806 881C1807.49 891.147 1813.57 904.511 1826 902.783C1831.8 901.978 1836.5 897.739 1842 896C1842.13 898.468 1842.36 900.699 1843.37 902.998C1844.11 904.689 1845.09 906.333 1846.39 907.656C1857.77 919.226 1870.3 898.892 1878 893C1878.52 897.01 1879.05 901.433 1881.09 905C1893.5 926.729 1921.31 900.468 1923 884C1938.12 883.875 1952.86 879.125 1968 879C1969.43 890.343 1968.54 901.604 1969.04 913C1969.39 920.997 1970.79 928.996 1970.99 937C1971.35 951.739 1970 966.317 1970 981C1962.72 982.076 1955.91 985.229 1949 987.659C1941.27 990.378 1933.45 992.302 1926.02 995.865C1921.41 998.074 1918.01 1006.49 1924.28 1009.4C1930.16 1012.12 1941.04 1008 1947 1006.65C1966.76 1002.18 1986.56 997.543 2006 992L2006 980C1995.58 981.531 1985.61 985.781 1975 986C1975 961.024 1975.79 935.888 1974.09 911C1973.7 905.33 1974.32 899.653 1973.58 894C1972.75 887.697 1973.01 881.348 1973 875C1972.99 872.59 1973.55 868.886 1971.4 867.179C1967.92 864.428 1960.94 866.608 1957 867.05C1944.36 868.47 1931.67 870.998 1919 872C1918.46 882.448 1910.32 891.639 1902 897.377C1896.75 901 1890.06 902.708 1885.65 896.941C1878.74 887.911 1885.24 882.713 1886.72 873.83C1887.37 869.932 1885.78 865.783 1885 862C1877.16 863.294 1878.68 870.947 1875.77 876.576C1872.37 883.175 1866 889.943 1860 894.211C1854.57 898.069 1846.44 898.918 1846.2 890C1846.1 885.933 1848.86 882.853 1849.5 879C1850.04 875.712 1848.82 872.154 1848 869M472 863L473 864L472 863M486 866L487 867L486 866M482 883L482 886C482.696 884.446 482.696 884.554 482 883M519 883L520 884L519 883M521 884L522 885L521 884M490 886L491 887L490 886M492 887L493 888L492 887M471 888L471 891C471.696 889.446 471.696 889.554 471 888M528 888L529 889L528 888M481 889L481 892C481.696 890.446 481.696 890.554 481 889M530 889L531 890L530 889M535 892L536 893L535 892M470.333 893.667C470.278 893.722 470.222 894.778 470.667 894.333C470.722 894.278 470.778 893.222 470.333 893.667M507 894L508 895L507 894M538 894L539 895L538 894M509 895L510 896L509 895M480 896L480 899C480.696 897.446 480.696 897.554 480 896M511 896L512 897L511 896M513 897L514 898L513 897M517 899L518 900L517 899M519 900L520 901L519 900M521 901L522 902L521 901M479 902L479 905C479.696 903.446 479.696 903.554 479 902M548 904L548 909C548.83 906.97 548.83 906.03 548 904M534 908L535 909L534 908M536 909L537 910L536 909M539 911L540 912L539 911M470 914L471 915L470 914M473 919L474 920L473 919M431 985C435.471 986.876 441.183 986 446 986C441.529 984.124 435.817 985 431 985z"/>
<path style="fill:#45403a; stroke:none;" d="M424 1042C434.528 1027.06 460.546 1017.14 456.768 995C455.163 985.6 445.355 986 438 986C425.485 986 413.872 986.742 402 991.12C396.8 993.038 391.464 995.256 388.264 1000.04C384.837 1005.17 387.309 1010.36 386.711 1016C385.801 1024.57 386.776 1032.48 386.985 1041C387.263 1052.32 387.087 1063.8 388.92 1075C390.38 1083.92 392.438 1094 392.74 1103C392.897 1107.68 391.513 1113.35 397.005 1115.84C399.404 1116.93 401.93 1115.17 404.039 1114.16C409.281 1111.66 414.542 1109.1 420 1107.09C438.452 1100.28 458.78 1092.04 472.996 1077.99C478.74 1072.31 485.625 1061.59 480.972 1053.09C478.03 1047.72 470.424 1046.91 465 1046.13C451.528 1044.19 437.189 1045.14 424 1042z"/>
<path style="fill:#c44854; stroke:none;" d="M413.667 987.333C413.222 987.778 414.278 987.722 414.333 987.667C414.778 987.222 413.722 987.278 413.667 987.333M409.667 988.333C409.222 988.778 410.278 988.722 410.333 988.667C410.778 988.222 409.722 988.278 409.667 988.333M403.667 990.333C403.222 990.778 404.278 990.722 404.333 990.667C404.778 990.222 403.722 990.278 403.667 990.333M456.333 991.667C456.278 991.722 456.222 992.778 456.667 992.333C456.722 992.278 456.778 991.222 456.333 991.667M1697 1008C1691.36 1008.45 1680.33 1008.53 1685.01 1016.94C1685.53 1017.88 1686.36 1018.76 1687.21 1019.4C1690.34 1021.74 1694.47 1019.98 1697.58 1022.03C1701.67 1024.72 1701.76 1029.18 1707 1031C1706.93 1028.1 1704.98 1023 1706.24 1020.43C1708.21 1016.39 1715.42 1017.63 1718.4 1014.35C1720.64 1011.87 1720.26 1005.99 1716.72 1004.77C1713.45 1003.65 1708.3 1005.39 1705 1006C1706.22 1004.8 1706.42 1004.68 1708 1004C1707.9 999.677 1704.46 987.499 1698.74 995.153C1696.17 998.602 1697 1003.96 1697 1008M394 994L395 995L394 994M392 995L393 996L392 995z"/>
<path style="fill:#c7c5c1; stroke:none;" d="M401 1102C407.418 1100.89 412.961 1097.39 419 1095.11C432.373 1090.08 445.33 1084.56 457 1076.08C463.077 1071.67 470.438 1066.74 472 1059C460.976 1058.53 450.08 1058 439 1058C433.808 1058 426.896 1059.17 422.015 1057.14C417.177 1055.13 409.252 1046.67 410.951 1041C412.267 1036.61 416.868 1033.1 420 1030C428.996 1021.11 444.648 1011.89 448 999C435.305 999 423.098 1000.52 411 1004.7C406.766 1006.16 401.451 1007.71 398.434 1011.21C393.758 1016.65 396 1028.29 396 1035C396 1047.45 397.042 1059.61 397.91 1072C398.597 1081.8 398.724 1092.44 401 1102z"/>
<path style="fill:#c44854; stroke:none;" d="M427.667 1000.33C427.222 1000.78 428.278 1000.72 428.333 1000.67C428.778 1000.22 427.722 1000.28 427.667 1000.33M456 1001L456 1007C456.951 1004.71 456.951 1003.29 456 1001M385 1004L385 1008C385.71 1006.24 385.71 1005.76 385 1004M445 1004L446 1005L445 1004M405.667 1006.33C405.222 1006.78 406.278 1006.72 406.333 1006.67C406.778 1006.22 405.722 1006.28 405.667 1006.33M441 1009L442 1010L441 1009M397 1011L398 1012L397 1011M437 1013L438 1014L437 1013M435 1015L436 1016L435 1015M434 1016L435 1017L434 1016M433 1017L434 1018L433 1017M432 1018L433 1019L432 1018M395 1020L395 1039C397.02 1034.19 397.02 1024.81 395 1020M425 1024L426 1025L425 1024M441 1024L442 1025L441 1024M440 1025L441 1026L440 1025M439 1026L440 1027L439 1026M1204 1139C1208.58 1147.73 1220.8 1150.28 1224 1139C1217.67 1139.27 1211.19 1141.18 1209.4 1133C1207.73 1125.39 1213.66 1117.72 1216.35 1111C1223.24 1093.84 1230.49 1076.65 1236.01 1059C1238.01 1052.6 1244.71 1033.37 1234.05 1030.75C1230.51 1029.88 1227.97 1034.55 1226.46 1037C1221.24 1045.52 1217.29 1055.58 1214 1065C1210.77 1074.25 1208.49 1083.7 1205.52 1093C1204.63 1095.77 1204.55 1099.26 1202.99 1101.74C1200.38 1105.86 1194.61 1108.3 1191.29 1112.01C1181.89 1122.55 1173.7 1135.81 1168.62 1149C1165.91 1156.02 1159.39 1176.86 1175 1173.46C1183.03 1171.71 1188.19 1163.25 1192.42 1157C1196.43 1151.09 1199.46 1144.52 1204 1139M431 1033L432 1034L431 1033M386 1035L386 1044C387.256 1041.01 387.256 1037.99 386 1035M1708.98 1041.52C1705.27 1041.87 1701.71 1043.38 1698 1043.83C1696 1044.07 1693.27 1043.78 1691.62 1045.18C1686.46 1049.56 1696.96 1056.7 1701 1056.5C1705.04 1056.3 1711.73 1054.26 1713.97 1050.62C1716.44 1046.59 1713.78 1041.08 1708.98 1041.52M436 1043C438.332 1043.98 440.457 1043.98 443 1044C440.668 1043.02 438.543 1043.02 436 1043M413 1049L414 1050L413 1049M1076 1129C1069.17 1127.28 1061.51 1130.82 1055 1132.91C1040.77 1137.48 1025.66 1141.89 1011 1144.8C1004.91 1146.01 996.819 1147.46 991 1144.54C979.483 1138.77 980.403 1126.42 983.746 1116C988.795 1100.26 999.99 1088.25 1010.58 1076C1016.32 1069.35 1022.72 1062.28 1032 1062C1032 1059.44 1032.3 1056.54 1031.57 1054.05C1030.34 1049.91 1025.89 1048.57 1022 1049.67C1015.4 1051.53 1009.71 1058 1005.43 1063C990.13 1080.85 972.356 1105.13 974.089 1130C974.345 1133.67 975.073 1137.59 976.482 1141C986.39 1164.96 1016.86 1154.01 1035 1149.49C1038.39 1148.64 1041.61 1147.25 1045 1146.38C1055.75 1143.61 1071.97 1140.66 1076 1129M480 1051L481 1052L480 1051M481 1052L482 1053L481 1052M396 1054L396 1062C397.161 1059.23 397.161 1056.77 396 1054M417 1054L418 1055L417 1054M418 1055L419 1056L418 1055M421.667 1057.33C421.222 1057.78 422.278 1057.72 422.333 1057.67C422.778 1057.22 421.722 1057.28 421.667 1057.33M447 1057C448.248 1057.68 448.548 1057.75 450 1058C448.752 1057.32 448.452 1057.25 447 1057M471 1062L472 1063L471 1062M820 1097C820.507 1093.66 821.399 1092.15 824 1090C828.325 1103.65 826.053 1119.93 825.089 1134C824.135 1147.94 824 1162.01 824 1176C819.205 1176.16 816.398 1177.18 815 1182C820.665 1186.27 824.526 1192.23 832 1193L832 1186C836.275 1185.9 839.925 1184.8 844 1183.59C859.653 1178.93 885.425 1166.69 877.867 1146C875.032 1138.24 868.631 1131.24 863.411 1125C861.454 1122.66 857.515 1119.4 857.921 1116C858.386 1112.12 863.387 1108.71 865.83 1106C873.763 1097.21 886.236 1078.4 871.982 1068.88C861.25 1061.71 844.555 1065.39 833 1068.01C829.431 1068.82 824.42 1069.17 821.259 1071.01C810.303 1077.4 805.323 1092.01 820 1097M397 1068L397 1075C398.059 1072.47 398.059 1070.53 397 1068M462 1071L463 1072L462 1071M457 1075L458 1076L457 1075M474 1076L475 1077L474 1076M473 1077L474 1078L473 1077M389 1078L389 1081C389.696 1079.45 389.696 1079.55 389 1078M472 1078L473 1079L472 1078z"/>
<path style="fill:#c7c5c1; stroke:none;" d="M832 1084C833.082 1092.03 835.603 1099.84 835.961 1108C836.918 1129.87 833 1152.06 833 1174C838.681 1172.93 843.63 1171.49 849 1169.34C852.756 1167.84 856.455 1166.17 860 1164.2C862.423 1162.86 864.698 1161.31 866.695 1159.38C872.264 1153.99 870.619 1148.92 866.819 1143C862.352 1136.04 856.684 1130.5 851.681 1124C849.611 1121.31 846.663 1117.59 846.694 1114C846.73 1109.7 851.196 1105.98 853.83 1103.04C860.096 1096.04 867.736 1089.42 870 1080C857.092 1076.93 844.389 1080.48 832 1084z"/>
<path style="fill:#c44854; stroke:none;" d="M1286 1116C1284.29 1114.45 1283.18 1113.76 1281 1113C1277.62 1118.82 1275.13 1125.1 1271.86 1131C1269.78 1134.76 1267.96 1138.58 1265.32 1142C1262.67 1145.43 1259.23 1149.76 1255 1151.24C1249.74 1153.09 1242.69 1147.65 1243.15 1142C1243.39 1139.01 1246.05 1136.38 1247.64 1134C1252.2 1127.16 1255.3 1120.37 1254.98 1112C1254.81 1107.5 1252.25 1102.81 1247 1103.41C1244.39 1103.71 1242.11 1105.53 1240.3 1107.3C1235.26 1112.27 1233.34 1119.09 1233.04 1126C1232.88 1129.52 1233.64 1133.63 1232.4 1137C1230.79 1141.33 1225.97 1143.04 1224.09 1147.05C1222.76 1149.88 1225.05 1152.5 1228.02 1152.41C1231.16 1152.31 1234.28 1149.38 1237 1148C1240.54 1155.58 1250.65 1161.97 1259 1157.68C1264.13 1155.05 1266.89 1149.76 1271 1146C1272.19 1149.69 1274.29 1150.4 1278 1151C1279.53 1145.62 1281.32 1136.26 1286.39 1133.03C1289.56 1131.01 1294.43 1132.24 1298 1131.48C1305.53 1129.89 1312.75 1126.83 1320 1124.35C1326.17 1122.25 1332.86 1120.13 1336 1114C1321.18 1114.04 1306.65 1119.15 1292 1121C1297.65 1108.92 1310.18 1093.49 1324 1091C1324.2 1089.24 1324.82 1086.96 1324.23 1085.22C1322.04 1078.85 1313.17 1084.22 1310 1086.44C1299.76 1093.61 1291.28 1104.71 1286 1116M466 1083L467 1084L466 1083M460 1087L461 1088L460 1087M616 1214L618 1214C617.338 1218 620.039 1221.44 619 1225C623.358 1226.05 627.961 1224.81 630.521 1220.94C635.283 1213.74 637.698 1204.06 640.644 1196C643.009 1189.53 646.064 1183.94 647 1177C650.4 1177.84 653.457 1179.66 657 1179.94C669.455 1180.94 681.791 1176.58 694 1175C696.679 1196.08 706.86 1216.45 714.691 1236C717.365 1242.68 719.053 1251.78 724.133 1257.15C727.041 1260.22 732.046 1261.86 736 1263C734.783 1251.72 727.98 1239.66 724.053 1229C717.24 1210.5 711.942 1191.74 706 1173C711.125 1172.99 720.534 1173.25 720.663 1166C720.843 1155.87 706.352 1163.36 702.652 1155.94C700.301 1151.23 699.928 1145.13 699.08 1140C696.971 1127.23 695.981 1112.36 689.243 1101C686.671 1096.67 683.339 1091.06 678.575 1088.86C674.469 1086.96 670.286 1089.05 667.465 1092.11C661.969 1098.06 658.97 1105.73 655.694 1113C647.871 1130.35 642.046 1148.49 634.573 1166C627.956 1181.51 619.468 1197.41 616 1214M399 1089L399 1092C399.696 1090.45 399.696 1090.55 399 1089M457 1089L458 1090L457 1089M430.667 1090.33C430.222 1090.78 431.278 1090.72 431.333 1090.67C431.778 1090.22 430.722 1090.28 430.667 1090.33M449.667 1093.33C449.222 1093.78 450.278 1093.72 450.333 1093.67C450.778 1093.22 449.722 1093.28 449.667 1093.33M415 1096C416.809 1096.57 417.069 1096.47 419 1096C417.341 1095.59 416.758 1095.69 415 1096M410.667 1098.33C410.222 1098.78 411.278 1098.72 411.333 1098.67C411.778 1098.22 410.722 1098.28 410.667 1098.33M437.667 1099.33C437.222 1099.78 438.278 1099.72 438.333 1099.67C438.778 1099.22 437.722 1099.28 437.667 1099.33M435.667 1100.33C435.222 1100.78 436.278 1100.72 436.333 1100.67C436.778 1100.22 435.722 1100.28 435.667 1100.33M433.667 1101.33C433.222 1101.78 434.278 1101.72 434.333 1101.67C434.778 1101.22 433.722 1101.28 433.667 1101.33M428.667 1103.33C428.222 1103.78 429.278 1103.72 429.333 1103.67C429.778 1103.22 428.722 1103.28 428.667 1103.33M421.667 1106.33C421.222 1106.78 422.278 1106.72 422.333 1106.67C422.778 1106.22 421.722 1106.28 421.667 1106.33M418.667 1107.33C418.222 1107.78 419.278 1107.72 419.333 1107.67C419.778 1107.22 418.722 1107.28 418.667 1107.33z"/>
<path style="fill:#c7c5c1; stroke:none;" d="M654 1165C662.222 1165 669.895 1163.27 678 1162.13C680.886 1161.72 685.995 1161.81 687.968 1159.26C690.473 1156.03 687.513 1148.57 686.8 1145C684.251 1132.25 682.33 1119.58 679 1107C673.006 1110.11 670.66 1117.92 668.551 1124C663.974 1137.2 655.402 1151.01 654 1165z"/>
<path style="fill:#c44854; stroke:none;" d="M416.667 1108.33C416.222 1108.78 417.278 1108.72 417.333 1108.67C417.778 1108.22 416.722 1108.28 416.667 1108.33M411.667 1110.33C411.222 1110.78 412.278 1110.72 412.333 1110.67C412.778 1110.22 411.722 1110.28 411.667 1110.33z"/>
<path style="fill:#c7c5c1; stroke:none;" d="M1240 1130C1244.99 1125.55 1248.01 1119.59 1249 1113C1242.37 1116.37 1240.56 1123.03 1240 1130z"/>
<path style="fill:#c44854; stroke:none;" d="M400.667 1115.33C400.222 1115.78 401.278 1115.72 401.333 1115.67C401.778 1115.22 400.722 1115.28 400.667 1115.33z"/>
<path style="fill:#c7c5c1; stroke:none;" d="M1173 1164C1179.62 1161.43 1183.66 1155.82 1187.41 1150C1193.85 1140 1200.97 1129.13 1201 1117C1195.72 1119.51 1192.92 1124.37 1189.58 1129C1182.14 1139.29 1173.57 1150.83 1173 1164z"/>
<path style="fill:#c44854; stroke:none;" d="M1495 1231C1473.35 1245.28 1448.12 1254.14 1427 1269C1428.65 1275.86 1434.19 1278.42 1441 1277.83C1455.58 1276.55 1469.17 1271 1484 1271C1465.89 1281.29 1444.69 1286.41 1426 1295.75C1421.66 1297.92 1408.46 1302.03 1410.66 1308.82C1413.07 1316.23 1424.54 1313.69 1430 1312.87C1449.17 1309.97 1467.47 1304.16 1487 1304C1472.17 1313.43 1454.98 1319.24 1440 1328.69C1436.2 1331.09 1426.58 1335.04 1425.92 1340.07C1425.13 1346.08 1434.31 1346.22 1438 1345.49C1453.41 1342.43 1469.4 1342.02 1485 1339C1484.4 1352.88 1478.69 1366.27 1476.73 1380C1475.86 1386.07 1474.13 1393.39 1482 1394C1483.67 1380.79 1487.22 1367.93 1490.37 1355C1491.61 1349.94 1491.08 1343.71 1496 1341C1496 1337.65 1496.94 1332.19 1493.68 1330.03C1489.9 1327.51 1483.99 1330.05 1480 1330.71C1469.98 1332.39 1460.17 1334 1450 1334C1460.88 1324.92 1475.07 1319.52 1488 1313.98C1492.68 1311.98 1501.29 1310.06 1503.39 1304.81C1506.63 1296.72 1495.31 1295.06 1490 1295C1472.81 1294.82 1456.03 1299.65 1439 1301C1456.92 1288.74 1481.33 1287.6 1498.94 1275.03C1503.2 1272 1504.74 1265.17 1498.94 1262.74C1492.76 1260.16 1481.62 1261.64 1475 1262.09C1468.99 1262.5 1463.01 1263.53 1457 1264C1471.95 1254.07 1488.27 1245.95 1504 1237.31C1508.85 1234.64 1518.37 1230.43 1513.97 1223.23C1511.48 1219.15 1505.07 1219.78 1501 1220.17C1490.06 1221.21 1478.94 1223.53 1468 1224C1468.12 1209.31 1471 1194.7 1471 1180L1477 1180C1476.85 1175.33 1470.25 1165.62 1464.74 1170.76C1461.55 1173.74 1463.18 1181.07 1462.71 1185C1461.3 1196.95 1461.98 1209.12 1460.42 1221C1459.86 1225.27 1458.7 1232.36 1463.15 1234.97C1466.36 1236.86 1470.68 1235.44 1474 1234.63C1481.06 1232.9 1487.69 1231.02 1495 1231M425 1193C426.769 1193.78 428.036 1193.91 430 1194C428.231 1193.22 426.964 1193.09 425 1193z"/>
<path style="fill:#45403a; stroke:none;" d="M404 1211C402.736 1221.01 405.382 1230.08 406.718 1240C408.681 1254.57 410.014 1269.34 411.089 1284C411.719 1292.59 408.652 1304.53 419 1307C421.923 1283.88 417.634 1260 414.845 1237C414.239 1232.01 412.663 1227.01 412.38 1222C412.116 1217.35 413.902 1212.7 414 1208C419.526 1207.76 424.572 1205.83 430 1205.18C440.828 1203.89 453.207 1204.44 464 1205.71C467.79 1206.16 477.604 1207.69 479.914 1203.7C483.511 1197.49 469.121 1196.39 466 1195.8C449.887 1192.77 433.275 1191.97 417 1194.3C401.6 1196.5 384.155 1201.65 371 1210.09C365.677 1213.5 354.351 1221.1 364.019 1226.27C364.895 1226.74 366.011 1227.12 367 1227.24C371.485 1227.77 375.393 1223.17 379 1221.09C386.828 1216.58 395.305 1213.37 404 1211z"/>
<path style="fill:#c44854; stroke:none;" d="M464 1195C465.248 1195.68 465.548 1195.75 467 1196C465.752 1195.32 465.452 1195.25 464 1195M469 1196C470.248 1196.68 470.548 1196.75 472 1197C470.752 1196.32 470.452 1196.25 469 1196M401.667 1197.33C401.222 1197.78 402.278 1197.72 402.333 1197.67C402.778 1197.22 401.722 1197.28 401.667 1197.33M481.333 1201.67C481.278 1201.72 481.222 1202.78 481.667 1202.33C481.722 1202.28 481.778 1201.22 481.333 1201.67M387 1202L388 1203L387 1202M382 1204L383 1205L382 1204M427 1205C429.332 1205.98 431.457 1205.98 434 1206C431.668 1205.02 429.543 1205.02 427 1205M419.667 1207.33C419.222 1207.78 420.278 1207.72 420.333 1207.67C420.778 1207.22 419.722 1207.28 419.667 1207.33M414.667 1208.33C414.222 1208.78 415.278 1208.72 415.333 1208.67C415.778 1208.22 414.722 1208.28 414.667 1208.33M401 1211L403 1215C403.683 1213.49 403.826 1212.69 404 1211L401 1211M366 1213L367 1214L366 1213M392.667 1214.33C392.222 1214.78 393.278 1214.72 393.333 1214.67C393.778 1214.22 392.722 1214.28 392.667 1214.33M413 1214L413 1218C413.71 1216.24 413.71 1215.76 413 1214z"/>
<path style="fill:#45403a; stroke:none;" d="M616 1214C614.133 1219.99 613.714 1224.01 621 1225C619.742 1221.13 617.832 1218.16 618 1214L616 1214z"/>
<path style="fill:#c44854; stroke:none;" d="M615 1215C614.014 1216.48 614 1216.2 614 1218C615.289 1216.56 615.401 1216.77 615 1215M387.667 1216.33C387.222 1216.78 388.278 1216.72 388.333 1216.67C388.778 1216.22 387.722 1216.28 387.667 1216.33M361 1217L362 1218L361 1217M360 1218L361 1219L360 1218M412 1218L412 1224C412.951 1221.71 412.951 1220.29 412 1218M615 1223L616 1224L615 1223M360 1224L361 1225L360 1224z"/>
<path style="fill:#45403a; stroke:none;" d="M621 1225C623.332 1225.98 625.457 1225.98 628 1226C625.668 1225.02 623.543 1225.02 621 1225z"/>
<path style="fill:#c44854; stroke:none;" d="M366 1227L367 1228L366 1227M406.333 1238.67C406.278 1238.72 406.222 1239.78 406.667 1239.33C406.722 1239.28 406.778 1238.22 406.333 1238.67M415 1238L415 1243C415.83 1240.97 415.83 1240.03 415 1238M407 1246L407 1251C407.83 1248.97 407.83 1248.03 407 1246M1181 1359C1182.36 1354.7 1182.09 1344.53 1186.42 1342.2C1190.62 1339.93 1201.42 1341.95 1206 1342.8C1211.02 1343.74 1215.26 1344.72 1217 1339C1216.32 1340.25 1216.25 1340.55 1216 1342C1214.86 1340.26 1214.38 1339.86 1215 1338C1207.58 1333.33 1196.57 1333.18 1188 1333C1189.33 1324.4 1198.35 1319.62 1202.39 1312.29C1206.28 1305.21 1198.55 1306.92 1195.04 1310.01C1193.64 1311.26 1192.33 1312.67 1191 1314C1191.08 1304.25 1192.96 1294.55 1194.74 1285C1196.48 1275.67 1199.06 1266.55 1199 1257C1198.98 1253.97 1198.32 1246.12 1193.27 1249.66C1188.52 1253 1187.72 1265.63 1187.17 1271C1185.89 1283.65 1184.6 1296.43 1182.56 1309C1181.3 1316.8 1178.71 1324.05 1178 1332C1177.23 1340.63 1170.33 1354.73 1181 1359M417 1255L417 1260C417.83 1257.97 417.83 1257.03 417 1255M1155 1330C1155.49 1334.93 1156.07 1343.74 1159.01 1347.77C1160.5 1349.82 1164.95 1352.22 1166.34 1348.68C1167.5 1345.7 1164.58 1341.95 1164.14 1339C1163.01 1331.43 1162.89 1316.33 1151 1319.76C1149.54 1320.18 1148.21 1321.24 1147.09 1322.23C1144.83 1324.21 1142.98 1326.74 1141 1329C1142.88 1318.89 1143.07 1308.25 1144.17 1298C1145.13 1289.02 1147.15 1279.65 1144 1271C1136.52 1273.15 1136.21 1281.21 1136.01 1288C1135.77 1296.35 1134.66 1304.67 1134.09 1313C1133.68 1319 1134.36 1325.02 1133.58 1331C1133.02 1335.25 1130.53 1348.77 1137.98 1348.4C1141.69 1348.22 1143.44 1343.77 1144.93 1341C1147.48 1336.28 1150.48 1332.89 1155 1330M419 1277L419 1284C420.059 1281.47 420.059 1279.53 419 1277M411 1287L411 1291C411.71 1289.24 411.71 1288.76 411 1287M1111 1287C1109.39 1287.04 1107.65 1286.93 1106.08 1287.43C1095.46 1290.82 1111.87 1305.2 1111.77 1293C1111.75 1291.02 1111.25 1288.96 1111 1287z"/>
<path style="fill:#45403a; stroke:none;" d="M1189 1309L1189 1316C1190.06 1313.47 1190.06 1311.53 1189 1309M1213 1338L1215 1342C1215.68 1340.49 1215.83 1339.69 1216 1338L1213 1338z"/>
<path style="fill:#c44854; stroke:none;" d="M1108 1341C1102.31 1350.78 1100.26 1362.71 1091.91 1370.9C1087.41 1375.31 1077.55 1377.64 1078.28 1368C1078.64 1363.3 1080.69 1358.9 1081 1354L1076 1353L1079 1355C1070.33 1360.49 1069.94 1378.75 1081 1382.06C1100.91 1388.01 1114.63 1356.65 1110 1341L1108 1341z"/>
<path style="fill:#45403a; stroke:none;" d="M1092 1381C1089.37 1381.67 1086.76 1382.81 1084 1382.5C1073.81 1381.39 1071.4 1370.5 1073.67 1362.02C1074.6 1358.52 1077.32 1356.92 1079 1354C1068.98 1355.7 1068.52 1375.55 1075.39 1381.27C1079.5 1384.69 1088.76 1385.58 1092 1381z"/>
<path style="fill:#c44854; stroke:none;" d="M1072.33 1358.67C1072.28 1358.72 1072.22 1359.78 1072.67 1359.33C1072.72 1359.28 1072.78 1358.22 1072.33 1358.67M462 1360C462.684 1361.58 462.805 1361.78 464 1363C463.316 1361.42 463.195 1361.22 462 1360M1071 1360L1071 1364C1071.71 1362.24 1071.71 1361.76 1071 1360M1070 1364L1070 1372C1071.16 1369.23 1071.16 1366.77 1070 1364M531.667 1372.33C531.222 1372.78 532.278 1372.72 532.333 1372.67C532.778 1372.22 531.722 1372.28 531.667 1372.33z"/>
<path style="fill:#45403a; stroke:none;" d="M524 1373L525 1378C525.779 1376.23 525.912 1374.96 526 1373L524 1373M531 1373L531 1375L533 1375L533 1373L531 1373z"/>
<path style="fill:#c44854; stroke:none;" d="M1071 1373L1071 1376C1071.7 1374.45 1071.7 1374.55 1071 1373M1072.33 1377.67C1072.28 1377.72 1072.22 1378.78 1072.67 1378.33C1072.72 1378.28 1072.78 1377.22 1072.33 1377.67M1073 1379L1074 1380L1073 1379M1078 1383C1079.25 1383.68 1079.55 1383.75 1081 1384C1079.75 1383.32 1079.45 1383.25 1078 1383M1082 1384C1084.05 1384.87 1085.75 1384.95 1088 1385C1085.95 1384.13 1084.25 1384.05 1082 1384M352 1389L352 1391L354 1391L354 1389L352 1389z"/>
<path style="fill:#45403a; stroke:none;" d="M1480 1389C1478.65 1389.86 1478.65 1389.82 1477 1390C1477.58 1392.7 1478.26 1392.79 1481 1393C1480.83 1391.31 1480.68 1390.51 1480 1389M994 1470L994 1472L996 1472L996 1470L994 1470M203.333 1561.67C203.278 1561.72 203.222 1562.78 203.667 1562.33C203.722 1562.28 203.778 1561.22 203.333 1561.67M514 1614L514 1616L516 1616L516 1614L514 1614z"/>
<path style="fill:#c44854; stroke:none;" d="M852 1639L852 1641L855 1641L855 1639L852 1639z"/>
</svg>
